<?xml version="1.0" encoding="UTF-8" standalone="no"?>
<!-- Created with Inkscape (http://www.inkscape.org/) -->

<svg
   xmlns:dc="http://purl.org/dc/elements/1.1/"
   xmlns:cc="http://creativecommons.org/ns#"
   xmlns:rdf="http://www.w3.org/1999/02/22-rdf-syntax-ns#"
   xmlns:svg="http://www.w3.org/2000/svg"
   xmlns="http://www.w3.org/2000/svg"
   xmlns:sodipodi="http://sodipodi.sourceforge.net/DTD/sodipodi-0.dtd"
   xmlns:inkscape="http://www.inkscape.org/namespaces/inkscape"
   width="42.016975mm"
   height="24.48876mm"
   viewBox="0 0 42.016975 24.48876"
   version="1.1"
   id="svg11810"
   sodipodi:docname="dark-clouds.svg"
   inkscape:version="0.92.4 (5da689c313, 2019-01-14)">
  <defs
     id="defs11804">
    <clipPath
       id="clipPath1784"
       clipPathUnits="userSpaceOnUse">
      <path
         inkscape:connector-curvature="0"
         id="path1782"
         d="m 3776.39,386.59 c -2.97,18.84 2.64,37.43 14.33,53.191 -20.53,-17.359 -31.84,-41.929 -27.87,-67.07 6.57,-41.82 52.67,-69.281 103.02,-61.391 16.65,2.649 31.59,8.852 43.99,17.418 -6.92,-2.379 -14.16,-4.297 -21.76,-5.5 -54.89,-8.617 -104.83,19.742 -111.71,63.352 z m 352.53,65.59 c 37.8,-13.578 62.19,-36.93 58.49,-59.95 -4.81,-30.589 -57.34,-48.941 -117.25,-41.011 l -0.06,0.031 c 9.01,-3.141 18.81,-5.48 29.17,-6.879 51.18,-6.769 96.56,12.309 101.32,42.688 4.46,27.91 -26.92,55.543 -71.67,65.121 z m -454.06,104.062 c 5.89,0 11.47,-1.062 16.86,-2.551 -8.14,5.797 -18.06,9.321 -28.91,9.321 -27.15,0 -49.12,-21.461 -49.12,-47.973 0,-2.539 0.36,-4.937 0.74,-7.398 5.53,27.679 30.44,48.601 60.43,48.601 z M 4006.47,345.73 c -15.16,2.7 -27.8,11.071 -36.46,22.391 7.31,-14.012 20.71,-24.742 37.51,-27.723 23.4,-4.179 45.67,7.75 56.01,27.684 -12.96,-16.941 -34.54,-26.363 -57.06,-22.352 z m -44.62,54.18 c -0.96,5.899 -2.65,11.531 -4.97,16.82 0.23,-1.121 0.53,-2.242 0.72,-3.39 7.04,-44.668 -29.88,-87.602 -82.53,-95.871 -52.63,-8.321 -100.96,21.211 -107.97,65.89 -0.22,1.262 -0.25,2.52 -0.39,3.813 -0.62,-5.91 -0.55,-11.863 0.41,-17.91 7.02,-44.68 56.3,-74.063 110.1,-65.59 53.8,8.488 91.66,51.547 84.63,96.238 z m -246.93,-69.418 c -24.12,4.278 -40.84,31.996 -40.37,55.637 -1.27,-3.109 -2.26,-6.348 -2.85,-9.82 -4.71,-26.528 13.11,-51.93 39.81,-56.68 26.75,-4.758 52.22,12.941 56.94,39.5 0.45,2.519 0.52,5.019 0.58,7.543 -8.5,-20.942 -30.83,-40.313 -54.11,-36.18 z m -91.03,22.188 c 6.04,0 11.86,0.742 17.49,2.062 -9.47,-3.812 -19.86,-5.933 -30.8,-5.933 -43.27,0 -78.35,32.91 -78.35,73.492 0,40.558 35.08,73.461 78.35,73.461 4.49,0 8.86,-0.442 13.15,-1.102 -40.93,-0.121 -74.09,-31.84 -74.09,-71 0,-39.211 33.25,-70.98 74.25,-70.98 z m 431.93,186.179 c -9.81,1.43 -19.37,1.582 -28.36,0.743 3.07,-0.243 6.23,-0.563 9.37,-1.02 51.76,-7.531 89.81,-40.863 84.92,-74.461 -0.41,-2.789 -1.2,-5.473 -2.15,-8.101 4.81,5.601 7.97,11.98 8.95,19.05 4.23,28.821 -28.38,57.371 -72.73,63.789 z m -72.68,88.871 c -40.69,25.032 -86.83,23.918 -103.1,-2.531 -3.77,-6.16 -5.51,-13.148 -5.58,-20.609 0.79,4.512 2.08,8.75 4.48,12.66 15.29,24.891 58.79,25.941 97.14,2.422 38.36,-23.613 57.09,-62.891 41.75,-87.801 -5.16,-8.391 -13.7,-13.84 -24.01,-16.762 14.67,2.121 26.82,8.493 33.62,19.52 16.27,26.422 -3.61,68.121 -44.3,93.101 z m -273.71,-71.91 c 0.55,-3.578 1.52,-7.031 2.65,-10.39 -5.17,7.832 -8.78,16.48 -10.27,25.871 -7.08,44.941 34.87,88.871 93.74,98.168 54.19,8.5 76.71,-5.297 99.35,-35.789 -29.03,18.019 -45.19,27.609 -91.75,20.3 -58.87,-9.289 -100.83,-53.23 -93.72,-98.16 z" />
    </clipPath>
    <radialGradient
       id="radialGradient1790"
       spreadMethod="pad"
       gradientTransform="matrix(840.909,0,0,-840.909,3977.81,938.97)"
       gradientUnits="userSpaceOnUse"
       r="1"
       cy="0"
       cx="0"
       fy="0"
       fx="0">
      <stop
         id="stop1786"
         offset="0"
         style="stop-opacity:1;stop-color:#9eb2c5" />
      <stop
         id="stop1788"
         offset="1"
         style="stop-opacity:1;stop-color:#252b2d" />
    </radialGradient>
    <clipPath
       id="clipPath1768"
       clipPathUnits="userSpaceOnUse">
      <path
         inkscape:connector-curvature="0"
         id="path1766"
         d="m 4134.53,460.129 c 1.97,3.973 3.3,8.211 3.96,12.66 5.11,34.93 -34.46,69.543 -88.22,77.32 -2.28,0.34 -4.48,0.551 -6.72,0.762 1.28,28.168 -20.38,62.109 -56.7,84.469 -30.04,18.461 -62.56,24.191 -86.81,17.859 -25.87,20.832 -65.05,30.961 -106.67,24.41 -67.44,-10.589 -115.48,-60.918 -107.35,-112.41 l 0.31,-1.449 c -6.68,2.629 -13.93,4.148 -21.57,4.148 -32.05,0 -58,-25.359 -58,-56.617 l 0.03,-0.34 c -48.24,-4.5 -85.85,-42.652 -85.85,-89.082 0,-49.449 42.76,-89.57 95.48,-89.57 19.1,0 36.83,5.313 51.71,14.359 7.57,-16.476 22.85,-29.136 42.11,-32.558 21.63,-3.871 42.3,5.051 54.94,21.039 22.22,-30.957 65.86,-48.277 112.53,-40.957 41.95,6.598 75.42,31.488 90.2,62.859 8.41,-11.519 21.05,-19.961 36.22,-22.66 19.83,-3.531 39.03,3.609 51.84,17.211 13.42,-7.312 29.32,-12.703 46.84,-15.25 53.77,-7.801 101.53,14.137 106.54,49.066 4.66,31.973 -28.05,63.551 -74.82,74.731 z" />
    </clipPath>
    <radialGradient
       id="radialGradient1774"
       spreadMethod="pad"
       gradientTransform="matrix(753.045,0,0,-753.045,3877.56,802.12)"
       gradientUnits="userSpaceOnUse"
       r="1"
       cy="0"
       cx="0"
       fy="0"
       fx="0">
      <stop
         id="stop1770"
         offset="0"
         style="stop-opacity:1;stop-color:#9eb2c5" />
      <stop
         id="stop1772"
         offset="1"
         style="stop-opacity:1;stop-color:#252b2d" />
    </radialGradient>
    <clipPath
       id="clipPath1748"
       clipPathUnits="userSpaceOnUse">
      <path
         inkscape:connector-curvature="0"
         id="path1746"
         d="m 4160.21,516.949 c -3.22,20.293 2.84,40.36 15.44,57.36 -22.13,-18.727 -34.35,-45.219 -30.05,-72.34 7.08,-45.098 56.8,-74.727 111.09,-66.168 17.96,2.801 34.07,9.508 47.45,18.758 -7.44,-2.598 -15.27,-4.618 -23.5,-5.957 -59.14,-9.301 -113.04,21.308 -120.43,68.347 z m 380.2,70.723 c 40.78,-14.621 67.09,-39.813 63.08,-64.672 -5.18,-32.969 -61.86,-52.77 -126.45,-44.211 l -0.09,0.02 c 9.73,-3.36 20.3,-5.911 31.49,-7.43 55.16,-7.277 104.17,13.301 109.28,46.082 4.83,30.09 -29.02,59.879 -77.31,70.211 z M 4050.7,699.93 c 6.36,0 12.35,-1.168 18.17,-2.77 -8.75,6.25 -19.46,10.082 -31.15,10.082 -29.28,0 -52.99,-23.172 -52.99,-51.762 0,-2.742 0.4,-5.359 0.81,-8 5.91,29.899 32.8,52.45 65.16,52.45 z m 357.66,-227.078 c -16.39,2.929 -30.01,11.957 -39.34,24.199 7.9,-15.172 22.33,-26.719 40.46,-29.949 25.26,-4.493 49.27,8.39 60.41,29.886 -13.96,-18.289 -37.22,-28.449 -61.53,-24.136 z m -48.16,58.437 c -1.02,6.371 -2.85,12.453 -5.37,18.191 0.28,-1.242 0.6,-2.441 0.81,-3.691 7.6,-48.168 -32.22,-94.5 -89.02,-103.418 -56.76,-8.941 -108.89,22.891 -116.46,71.07 -0.22,1.368 -0.26,2.75 -0.41,4.129 -0.64,-6.379 -0.57,-12.82 0.45,-19.32 7.57,-48.18 60.7,-79.859 118.73,-70.73 58.03,9.128 98.85,55.601 91.27,103.769 z m -266.28,-74.867 c -26.04,4.629 -44.1,34.508 -43.56,60.008 -1.37,-3.348 -2.43,-6.848 -3.08,-10.559 -5.1,-28.641 14.15,-56.031 42.94,-61.16 28.84,-5.109 56.3,13.961 61.4,42.598 0.48,2.742 0.59,5.429 0.63,8.152 -9.18,-22.609 -33.24,-43.5 -58.33,-39.039 z m -98.19,23.957 c 6.53,0 12.8,0.781 18.84,2.203 -10.17,-4.113 -21.44,-6.383 -33.21,-6.383 -46.69,0 -84.49,35.461 -84.49,79.242 0,43.758 37.8,79.231 84.49,79.231 4.85,0 9.56,-0.461 14.19,-1.18 -44.16,-0.121 -79.92,-34.351 -79.92,-76.562 0,-42.309 35.84,-76.551 80.1,-76.551 z m 465.83,200.781 c -10.57,1.52 -20.89,1.711 -30.59,0.82 3.34,-0.281 6.72,-0.64 10.12,-1.121 55.81,-8.109 96.86,-44.039 91.57,-80.289 -0.43,-3.011 -1.27,-5.89 -2.31,-8.711 5.19,6.032 8.6,12.891 9.68,20.532 4.54,31.039 -30.62,61.82 -78.47,68.769 z m -78.37,95.879 c -43.89,26.949 -93.67,25.77 -111.23,-2.75 -4.06,-6.648 -5.92,-14.219 -5.97,-22.187 0.85,4.808 2.21,9.437 4.8,13.617 16.51,26.851 63.41,27.98 104.78,2.601 41.38,-25.449 61.56,-67.808 45.02,-94.672 -5.55,-9.078 -14.77,-14.937 -25.91,-18.128 15.82,2.312 28.95,9.199 36.29,21.101 17.56,28.469 -3.89,73.449 -47.78,100.418 z m -295.23,-77.59 c 0.63,-3.847 1.67,-7.57 2.86,-11.179 -5.57,8.41 -9.47,17.75 -11.05,27.902 -7.65,48.437 37.57,95.859 101.08,105.848 58.44,9.199 82.74,-5.711 107.18,-38.622 -31.34,19.481 -48.74,29.813 -98.97,21.942 -63.47,-10.039 -108.72,-57.43 -101.1,-105.891 z" />
    </clipPath>
    <radialGradient
       id="radialGradient1756"
       spreadMethod="pad"
       gradientTransform="matrix(906.915,0,0,-906.915,4377.44,1112.68)"
       gradientUnits="userSpaceOnUse"
       r="1"
       cy="0"
       cx="0"
       fy="0"
       fx="0">
      <stop
         id="stop1750"
         offset="0"
         style="stop-opacity:1;stop-color:#f7f7fb" />
      <stop
         id="stop1752"
         offset="0.463415"
         style="stop-opacity:1;stop-color:#9eb2c5" />
      <stop
         id="stop1754"
         offset="1"
         style="stop-opacity:1;stop-color:#252b2d" />
    </radialGradient>
    <clipPath
       id="clipPath1730"
       clipPathUnits="userSpaceOnUse">
      <path
         inkscape:connector-curvature="0"
         id="path1728"
         d="m 4546.5,596.242 c 2.1,4.309 3.55,8.867 4.25,13.656 5.48,37.692 -37.17,74.993 -95.16,83.403 -2.46,0.398 -4.83,0.597 -7.25,0.84 1.38,30.32 -21.97,67 -61.17,91.089 -32.4,19.879 -67.45,26.09 -93.63,19.29 -27.9,22.449 -70.13,33.371 -115.02,26.332 -72.76,-11.473 -124.56,-65.75 -115.81,-121.27 l 0.34,-1.562 c -7.2,2.82 -15,4.46 -23.25,4.46 -34.57,0 -62.56,-27.332 -62.56,-61.058 l 0.02,-0.363 c -51.98,-4.879 -92.57,-46.028 -92.57,-96.059 0,-53.371 46.12,-96.621 102.99,-96.621 20.57,0 39.69,5.742 55.76,15.473 8.17,-17.782 24.64,-31.403 45.42,-35.114 23.31,-4.148 45.63,5.422 59.25,22.731 23.98,-33.43 71.05,-52.11 121.35,-44.219 45.27,7.109 81.35,33.98 97.31,67.789 9.07,-12.41 22.7,-21.527 39.05,-24.43 21.41,-3.808 42.09,3.911 55.9,18.563 14.51,-7.871 31.67,-13.703 50.56,-16.434 57.98,-8.437 109.46,15.254 114.9,52.953 5.03,34.469 -30.29,68.528 -80.68,80.551 z" />
    </clipPath>
    <radialGradient
       id="radialGradient1738"
       spreadMethod="pad"
       gradientTransform="matrix(812.251,0,0,-812.251,4269.33,965.15)"
       gradientUnits="userSpaceOnUse"
       r="1"
       cy="0"
       cx="0"
       fy="0"
       fx="0">
      <stop
         id="stop1732"
         offset="0"
         style="stop-opacity:1;stop-color:#f7f7fb" />
      <stop
         id="stop1734"
         offset="0.463415"
         style="stop-opacity:1;stop-color:#9eb2c5" />
      <stop
         id="stop1736"
         offset="1"
         style="stop-opacity:1;stop-color:#252b2d" />
    </radialGradient>
    <clipPath
       id="clipPath1710"
       clipPathUnits="userSpaceOnUse">
      <path
         inkscape:connector-curvature="0"
         id="path1708"
         d="m 3813.07,556.988 c -4.27,26.871 3.74,53.434 20.43,75.942 -29.31,-24.789 -45.46,-59.86 -39.81,-95.77 9.4,-59.738 75.24,-98.961 147.14,-87.64 23.79,3.699 45.14,12.57 62.87,24.851 -9.88,-3.449 -20.24,-6.133 -31.14,-7.891 -78.33,-12.3 -149.71,28.2 -159.49,90.508 z m 503.51,93.672 c 54,-19.371 88.84,-52.738 83.52,-85.648 -6.84,-43.68 -81.9,-69.91 -167.44,-58.551 l -0.12,0.019 c 12.89,-4.449 26.87,-7.832 41.7,-9.82 73.07,-9.648 137.94,17.602 144.72,61.012 6.39,39.848 -38.43,79.289 -102.38,92.988 z m -648.55,148.649 c 8.42,0 16.36,-1.52 24.07,-3.649 -11.61,8.289 -25.78,13.32 -41.27,13.32 -38.79,0 -70.2,-30.679 -70.2,-68.519 0,-3.621 0.53,-7.109 1.08,-10.59 7.86,39.578 43.47,69.438 86.32,69.438 z m 473.66,-300.7 c -21.69,3.86 -39.75,15.821 -52.08,32.02 10.45,-20.07 29.56,-35.391 53.56,-39.66 33.45,-5.93 65.25,11.14 80,39.562 -18.5,-24.179 -49.3,-37.64 -81.48,-31.922 z m -63.77,77.383 c -1.36,8.438 -3.77,16.469 -7.11,24.047 0.34,-1.617 0.81,-3.219 1.07,-4.859 10.06,-63.789 -42.68,-125.121 -117.89,-136.969 -75.19,-11.82 -144.2,30.34 -154.24,94.148 -0.28,1.801 -0.35,3.621 -0.55,5.43 -0.85,-8.43 -0.76,-16.969 0.59,-25.578 10.04,-63.789 80.41,-105.75 157.24,-93.652 76.87,12.101 130.93,73.621 120.89,137.433 z m -352.66,-99.16 c -34.49,6.129 -58.38,45.719 -57.68,79.469 -1.81,-4.422 -3.22,-9.09 -4.08,-13.969 -6.76,-37.941 18.72,-74.211 56.88,-81 38.16,-6.773 74.56,18.449 81.31,56.379 0.62,3.66 0.77,7.238 0.83,10.84 -12.16,-29.942 -44.02,-57.629 -77.26,-51.719 z m -130.04,31.707 c 8.63,0 16.96,1.063 24.98,2.922 -13.51,-5.422 -28.4,-8.43 -44.02,-8.43 -61.82,0 -111.87,46.961 -111.87,104.918 0,57.992 50.05,104.942 111.87,104.942 6.44,0 12.69,-0.61 18.8,-1.571 -58.49,-0.129 -105.83,-45.488 -105.83,-101.398 0,-56 47.47,-101.383 106.07,-101.383 z m 616.94,265.93 c -14.01,2.031 -27.69,2.261 -40.52,1.082 4.42,-0.379 8.91,-0.821 13.43,-1.5 73.89,-10.719 128.26,-58.321 121.25,-106.332 -0.6,-3.989 -1.68,-7.809 -3.06,-11.528 6.87,7.957 11.38,17.098 12.79,27.188 6.04,41.152 -40.52,81.902 -103.89,91.09 z m -103.8,126.961 c -58.13,35.73 -124.04,34.152 -147.29,-3.598 -5.39,-8.844 -7.85,-18.832 -7.94,-29.434 1.13,6.391 2.95,12.5 6.36,18.051 21.89,35.571 84,37.051 138.78,3.43 54.8,-33.688 81.52,-89.82 59.63,-125.379 -7.36,-12 -19.57,-19.77 -34.32,-23.961 20.96,3.051 38.35,12.141 48.06,27.902 23.24,37.719 -5.16,97.297 -63.28,132.989 z M 3717.38,798.691 c 0.81,-5.089 2.19,-10.011 3.79,-14.832 -7.4,11.18 -12.55,23.52 -14.65,36.973 -10.13,64.168 49.76,126.969 133.87,140.18 77.4,12.16 109.57,-7.571 141.94,-51.114 -41.5,25.743 -64.56,39.442 -131.06,29 -84.08,-13.257 -143.99,-76.019 -133.89,-140.207 z" />
    </clipPath>
    <radialGradient
       id="radialGradient1718"
       spreadMethod="pad"
       gradientTransform="matrix(1201.06,0,0,-1201.06,4100.75,1345.94)"
       gradientUnits="userSpaceOnUse"
       r="1"
       cy="0"
       cx="0"
       fy="0"
       fx="0">
      <stop
         id="stop1712"
         offset="0"
         style="stop-opacity:1;stop-color:#f7f7fb" />
      <stop
         id="stop1714"
         offset="0.463415"
         style="stop-opacity:1;stop-color:#9eb2c5" />
      <stop
         id="stop1716"
         offset="1"
         style="stop-opacity:1;stop-color:#252b2d" />
    </radialGradient>
    <clipPath
       id="clipPath1692"
       clipPathUnits="userSpaceOnUse">
      <path
         inkscape:connector-curvature="0"
         id="path1690"
         d="m 4324.63,662.02 c 2.78,5.679 4.7,11.75 5.62,18.082 7.29,49.898 -49.2,99.32 -126.01,110.468 -3.24,0.469 -6.41,0.762 -9.58,1.078 1.8,40.184 -29.11,88.731 -81.02,120.641 -42.92,26.352 -89.34,34.563 -124.02,25.531 -36.92,29.739 -92.88,44.231 -152.33,34.871 -96.33,-15.171 -164.96,-87.043 -153.38,-160.57 l 0.48,-2.082 c -9.56,3.723 -19.89,5.891 -30.81,5.891 -45.79,0 -82.86,-36.188 -82.86,-80.84 l 0.05,-0.5 c -68.86,-6.461 -122.6,-60.942 -122.6,-127.211 0,-70.668 61.06,-127.938 136.38,-127.938 27.27,0 52.59,7.59 73.87,20.469 10.8,-23.539 32.62,-41.601 60.12,-46.512 30.9,-5.488 60.44,7.231 78.48,30.102 31.74,-44.238 94.09,-68.988 160.73,-58.52 59.94,9.391 107.74,44.989 128.85,89.77 12.03,-16.441 30.07,-28.512 51.73,-32.371 28.34,-5.02 55.75,5.141 74.06,24.601 19.18,-10.46 41.9,-18.171 66.91,-21.789 76.81,-11.16 144.99,20.219 152.19,70.141 6.65,45.617 -40.1,90.738 -106.86,106.688 z" />
    </clipPath>
    <radialGradient
       id="radialGradient1700"
       spreadMethod="pad"
       gradientTransform="matrix(1075.67,0,0,-1075.67,3957.57,1150.55)"
       gradientUnits="userSpaceOnUse"
       r="1"
       cy="0"
       cx="0"
       fy="0"
       fx="0">
      <stop
         id="stop1694"
         offset="0"
         style="stop-opacity:1;stop-color:#f7f7fb" />
      <stop
         id="stop1696"
         offset="0.463415"
         style="stop-opacity:1;stop-color:#9eb2c5" />
      <stop
         id="stop1698"
         offset="1"
         style="stop-opacity:1;stop-color:#252b2d" />
    </radialGradient>
  </defs>
  <sodipodi:namedview
     id="base"
     pagecolor="#ffffff"
     bordercolor="#666666"
     borderopacity="1.0"
     inkscape:pageopacity="0.0"
     inkscape:pageshadow="2"
     inkscape:zoom="0.35"
     inkscape:cx="-496.70782"
     inkscape:cy="550.92884"
     inkscape:document-units="mm"
     inkscape:current-layer="layer1"
     showgrid="false"
     inkscape:window-width="1920"
     inkscape:window-height="1005"
     inkscape:window-x="-9"
     inkscape:window-y="-9"
     inkscape:window-maximized="1" />
  <metadata
     id="metadata11807">
    <rdf:RDF>
      <cc:Work
         rdf:about="">
        <dc:format>image/svg+xml</dc:format>
        <dc:type
           rdf:resource="http://purl.org/dc/dcmitype/StillImage" />
        <dc:title></dc:title>
      </cc:Work>
    </rdf:RDF>
  </metadata>
  <g
     inkscape:label="Layer 1"
     inkscape:groupmode="layer"
     id="layer1"
     transform="translate(-74.241498,-420.07116)">
    <path
       inkscape:connector-curvature="0"
       d="m 91.381206,440.04071 c -1.8796,0 -3.579283,-0.74747 -4.61257,-2.01429 -0.58808,0.62124 -1.39453,0.97151 -2.252838,0.97151 -0.178506,0 -0.361245,-0.0156 -0.545395,-0.0479 -0.921808,-0.16401 -1.719439,-0.73628 -2.177344,-1.54838 -0.764823,0.41702 -1.627717,0.63391 -2.50825,0.63391 -2.780948,0 -5.043311,-2.12866 -5.043311,-4.74652 0,-2.38167 1.846438,-4.3663 4.328583,-4.69484 0.101953,-1.61325 1.4732,-2.89457 3.147836,-2.89457 0.272697,0 0.541867,0.0357 0.806097,0.10488 -0.206022,-2.61056 2.252134,-5.09697 5.640564,-5.6315 0.431447,-0.0681 0.865717,-0.10185 1.297517,-0.10185 1.596672,0 3.071989,0.46345 4.167364,1.30807 0.303741,-0.0685 0.630061,-0.10337 0.975077,-0.10337 1.122186,0 2.353381,0.37564 3.465336,1.05901 1.756128,1.08094 2.922408,2.75981 2.971098,4.24423 0.0462,0.005 0.0914,0.0113 0.13793,0.0184 1.35537,0.1954 2.58163,0.72528 3.45405,1.48967 0.9017,0.78991 1.32327,1.73853 1.18851,2.67021 -0.0226,0.15131 -0.0589,0.30166 -0.11254,0.44666 2.38866,0.65757 3.92501,2.29055 3.68371,3.95675 -0.23566,1.62098 -2.09127,2.74987 -4.51556,2.74987 -0.369,0 -0.74577,-0.0283 -1.11654,-0.0801 -0.81068,-0.1185 -1.59773,-0.36435 -2.28671,-0.71395 -0.57608,0.54818 -1.34937,0.85795 -2.145237,0.85795 -0.179563,0 -0.364772,-0.0148 -0.549275,-0.0477 -0.671336,-0.11962 -1.276702,-0.45367 -1.739547,-0.95183 -0.869244,1.54094 -2.581628,2.66873 -4.553302,2.97822 -0.3683,0.0586 -0.739775,0.0874 -1.105253,0.0874"
       style="fill:#91a5ac;fill-opacity:1;fill-rule:nonzero;stroke:none;stroke-width:0.03527778"
       id="path1684" />
    <g
       transform="matrix(0.03527778,0,0,-0.03527778,-47.171202,454.71598)"
       id="g1686">
      <g
         id="g1688"
         clip-path="url(#clipPath1692)">
        <path
           inkscape:connector-curvature="0"
           d="m 4324.63,662.02 c 2.78,5.679 4.7,11.75 5.62,18.082 7.29,49.898 -49.2,99.32 -126.01,110.468 -3.24,0.469 -6.41,0.762 -9.58,1.078 1.8,40.184 -29.11,88.731 -81.02,120.641 -42.92,26.352 -89.34,34.563 -124.02,25.531 -36.92,29.739 -92.88,44.231 -152.33,34.871 -96.33,-15.171 -164.96,-87.043 -153.38,-160.57 l 0.48,-2.082 c -9.56,3.723 -19.89,5.891 -30.81,5.891 -45.79,0 -82.86,-36.188 -82.86,-80.84 l 0.05,-0.5 c -68.86,-6.461 -122.6,-60.942 -122.6,-127.211 0,-70.668 61.06,-127.938 136.38,-127.938 27.27,0 52.59,7.59 73.87,20.469 10.8,-23.539 32.62,-41.601 60.12,-46.512 30.9,-5.488 60.44,7.231 78.48,30.102 31.74,-44.238 94.09,-68.988 160.73,-58.52 59.94,9.391 107.74,44.989 128.85,89.77 12.03,-16.441 30.07,-28.512 51.73,-32.371 28.34,-5.02 55.75,5.141 74.06,24.601 19.18,-10.46 41.9,-18.171 66.91,-21.789 76.81,-11.16 144.99,20.219 152.19,70.141 6.65,45.617 -40.1,90.738 -106.86,106.688"
           style="fill:url(#radialGradient1700);fill-opacity:1;fill-rule:nonzero;stroke:none"
           id="path1702" />
      </g>
    </g>
    <g
       transform="matrix(0.03527778,0,0,-0.03527778,-47.171202,454.71598)"
       id="g1704">
      <g
         id="g1706"
         clip-path="url(#clipPath1710)">
        <path
           inkscape:connector-curvature="0"
           d="m 3813.07,556.988 c -4.27,26.871 3.74,53.434 20.43,75.942 -29.31,-24.789 -45.46,-59.86 -39.81,-95.77 9.4,-59.738 75.24,-98.961 147.14,-87.64 23.79,3.699 45.14,12.57 62.87,24.851 -9.88,-3.449 -20.24,-6.133 -31.14,-7.891 -78.33,-12.3 -149.71,28.2 -159.49,90.508 z m 503.51,93.672 c 54,-19.371 88.84,-52.738 83.52,-85.648 -6.84,-43.68 -81.9,-69.91 -167.44,-58.551 l -0.12,0.019 c 12.89,-4.449 26.87,-7.832 41.7,-9.82 73.07,-9.648 137.94,17.602 144.72,61.012 6.39,39.848 -38.43,79.289 -102.38,92.988 z m -648.55,148.649 c 8.42,0 16.36,-1.52 24.07,-3.649 -11.61,8.289 -25.78,13.32 -41.27,13.32 -38.79,0 -70.2,-30.679 -70.2,-68.519 0,-3.621 0.53,-7.109 1.08,-10.59 7.86,39.578 43.47,69.438 86.32,69.438 z m 473.66,-300.7 c -21.69,3.86 -39.75,15.821 -52.08,32.02 10.45,-20.07 29.56,-35.391 53.56,-39.66 33.45,-5.93 65.25,11.14 80,39.562 -18.5,-24.179 -49.3,-37.64 -81.48,-31.922 z m -63.77,77.383 c -1.36,8.438 -3.77,16.469 -7.11,24.047 0.34,-1.617 0.81,-3.219 1.07,-4.859 10.06,-63.789 -42.68,-125.121 -117.89,-136.969 -75.19,-11.82 -144.2,30.34 -154.24,94.148 -0.28,1.801 -0.35,3.621 -0.55,5.43 -0.85,-8.43 -0.76,-16.969 0.59,-25.578 10.04,-63.789 80.41,-105.75 157.24,-93.652 76.87,12.101 130.93,73.621 120.89,137.433 z m -352.66,-99.16 c -34.49,6.129 -58.38,45.719 -57.68,79.469 -1.81,-4.422 -3.22,-9.09 -4.08,-13.969 -6.76,-37.941 18.72,-74.211 56.88,-81 38.16,-6.773 74.56,18.449 81.31,56.379 0.62,3.66 0.77,7.238 0.83,10.84 -12.16,-29.942 -44.02,-57.629 -77.26,-51.719 z m -130.04,31.707 c 8.63,0 16.96,1.063 24.98,2.922 -13.51,-5.422 -28.4,-8.43 -44.02,-8.43 -61.82,0 -111.87,46.961 -111.87,104.918 0,57.992 50.05,104.942 111.87,104.942 6.44,0 12.69,-0.61 18.8,-1.571 -58.49,-0.129 -105.83,-45.488 -105.83,-101.398 0,-56 47.47,-101.383 106.07,-101.383 z m 616.94,265.93 c -14.01,2.031 -27.69,2.261 -40.52,1.082 4.42,-0.379 8.91,-0.821 13.43,-1.5 73.89,-10.719 128.26,-58.321 121.25,-106.332 -0.6,-3.989 -1.68,-7.809 -3.06,-11.528 6.87,7.957 11.38,17.098 12.79,27.188 6.04,41.152 -40.52,81.902 -103.89,91.09 z m -103.8,126.961 c -58.13,35.73 -124.04,34.152 -147.29,-3.598 -5.39,-8.844 -7.85,-18.832 -7.94,-29.434 1.13,6.391 2.95,12.5 6.36,18.051 21.89,35.571 84,37.051 138.78,3.43 54.8,-33.688 81.52,-89.82 59.63,-125.379 -7.36,-12 -19.57,-19.77 -34.32,-23.961 20.96,3.051 38.35,12.141 48.06,27.902 23.24,37.719 -5.16,97.297 -63.28,132.989 z M 3717.38,798.691 c 0.81,-5.089 2.19,-10.011 3.79,-14.832 -7.4,11.18 -12.55,23.52 -14.65,36.973 -10.13,64.168 49.76,126.969 133.87,140.18 77.4,12.16 109.57,-7.571 141.94,-51.114 -41.5,25.743 -64.56,39.442 -131.06,29 -84.08,-13.257 -143.99,-76.019 -133.89,-140.207"
           style="fill:url(#radialGradient1718);fill-opacity:1;fill-rule:nonzero;stroke:none"
           id="path1720" />
      </g>
    </g>
    <path
       inkscape:connector-curvature="0"
       d="m 102.6394,440.23516 c -1.41922,0 -2.702628,-0.56445 -3.482972,-1.5204 -0.444147,0.4681 -1.053042,0.73268 -1.700742,0.73268 -0.134761,0 -0.272697,-0.0106 -0.411691,-0.0353 -0.696031,-0.12457 -1.298928,-0.55672 -1.643945,-1.16953 -0.578203,0.31503 -1.22943,0.47847 -1.894064,0.47847 -2.100086,0 -3.808236,-1.60764 -3.808236,-3.58429 0,-1.79807 1.393825,-3.29738 3.268134,-3.54471 0.07691,-1.21821 1.112308,-2.18585 2.377722,-2.18585 0.205316,0 0.408164,0.0265 0.607836,0.0794 -0.155928,-1.97129 1.700389,-3.84845 4.259088,-4.25263 0.32526,-0.0509 0.6544,-0.077 0.98037,-0.077 1.20473,0 2.31881,0.35003 3.14572,0.98863 0.23036,-0.0509 0.47589,-0.0791 0.7366,-0.0791 0.84772,0 1.77764,0.2836 2.6169,0.80119 1.32574,0.81457 2.20592,2.0821 2.24296,3.20396 0.0353,0.003 0.0691,0.008 0.10443,0.0134 1.0227,0.14785 1.94874,0.54857 2.60773,1.12501 0.68192,0.59683 0.99907,1.31272 0.89817,2.01648 -0.0173,0.11398 -0.0448,0.22754 -0.0854,0.33789 1.8041,0.49611 2.96404,1.72861 2.78165,2.98637 -0.17745,1.22453 -1.57938,2.07712 -3.4096,2.07712 -0.27834,0 -0.56373,-0.0215 -0.84384,-0.0606 -0.61137,-0.0897 -1.20615,-0.27562 -1.72579,-0.53908 -0.43568,0.41339 -1.01918,0.64876 -1.61995,0.64876 -0.13653,0 -0.27553,-0.012 -0.41523,-0.0364 -0.50588,-0.0909 -0.96343,-0.34286 -1.31339,-0.7196 -0.65616,1.16417 -1.94945,2.01511 -3.43817,2.24854 -0.27799,0.0448 -0.55809,0.0667 -0.83432,0.0667"
       style="fill:#91a5ac;fill-opacity:1;fill-rule:nonzero;stroke:none;stroke-width:0.03527778"
       id="path1722" />
    <g
       transform="matrix(0.03527778,0,0,-0.03527778,-47.171202,454.71598)"
       id="g1724">
      <g
         id="g1726"
         clip-path="url(#clipPath1730)">
        <path
           inkscape:connector-curvature="0"
           d="m 4546.5,596.242 c 2.1,4.309 3.55,8.867 4.25,13.656 5.48,37.692 -37.17,74.993 -95.16,83.403 -2.46,0.398 -4.83,0.597 -7.25,0.84 1.38,30.32 -21.97,67 -61.17,91.089 -32.4,19.879 -67.45,26.09 -93.63,19.29 -27.9,22.449 -70.13,33.371 -115.02,26.332 -72.76,-11.473 -124.56,-65.75 -115.81,-121.27 l 0.34,-1.562 c -7.2,2.82 -15,4.46 -23.25,4.46 -34.57,0 -62.56,-27.332 -62.56,-61.058 l 0.02,-0.363 c -51.98,-4.879 -92.57,-46.028 -92.57,-96.059 0,-53.371 46.12,-96.621 102.99,-96.621 20.57,0 39.69,5.742 55.76,15.473 8.17,-17.782 24.64,-31.403 45.42,-35.114 23.31,-4.148 45.63,5.422 59.25,22.731 23.98,-33.43 71.05,-52.11 121.35,-44.219 45.27,7.109 81.35,33.98 97.31,67.789 9.07,-12.41 22.7,-21.527 39.05,-24.43 21.41,-3.808 42.09,3.911 55.9,18.563 14.51,-7.871 31.67,-13.703 50.56,-16.434 57.98,-8.437 109.46,15.254 114.9,52.953 5.03,34.469 -30.29,68.528 -80.68,80.551"
           style="fill:url(#radialGradient1738);fill-opacity:1;fill-rule:nonzero;stroke:none"
           id="path1740" />
      </g>
    </g>
    <g
       transform="matrix(0.03527778,0,0,-0.03527778,-47.171202,454.71598)"
       id="g1742">
      <g
         id="g1744"
         clip-path="url(#clipPath1748)">
        <path
           inkscape:connector-curvature="0"
           d="m 4160.21,516.949 c -3.22,20.293 2.84,40.36 15.44,57.36 -22.13,-18.727 -34.35,-45.219 -30.05,-72.34 7.08,-45.098 56.8,-74.727 111.09,-66.168 17.96,2.801 34.07,9.508 47.45,18.758 -7.44,-2.598 -15.27,-4.618 -23.5,-5.957 -59.14,-9.301 -113.04,21.308 -120.43,68.347 z m 380.2,70.723 c 40.78,-14.621 67.09,-39.813 63.08,-64.672 -5.18,-32.969 -61.86,-52.77 -126.45,-44.211 l -0.09,0.02 c 9.73,-3.36 20.3,-5.911 31.49,-7.43 55.16,-7.277 104.17,13.301 109.28,46.082 4.83,30.09 -29.02,59.879 -77.31,70.211 z M 4050.7,699.93 c 6.36,0 12.35,-1.168 18.17,-2.77 -8.75,6.25 -19.46,10.082 -31.15,10.082 -29.28,0 -52.99,-23.172 -52.99,-51.762 0,-2.742 0.4,-5.359 0.81,-8 5.91,29.899 32.8,52.45 65.16,52.45 z m 357.66,-227.078 c -16.39,2.929 -30.01,11.957 -39.34,24.199 7.9,-15.172 22.33,-26.719 40.46,-29.949 25.26,-4.493 49.27,8.39 60.41,29.886 -13.96,-18.289 -37.22,-28.449 -61.53,-24.136 z m -48.16,58.437 c -1.02,6.371 -2.85,12.453 -5.37,18.191 0.28,-1.242 0.6,-2.441 0.81,-3.691 7.6,-48.168 -32.22,-94.5 -89.02,-103.418 -56.76,-8.941 -108.89,22.891 -116.46,71.07 -0.22,1.368 -0.26,2.75 -0.41,4.129 -0.64,-6.379 -0.57,-12.82 0.45,-19.32 7.57,-48.18 60.7,-79.859 118.73,-70.73 58.03,9.128 98.85,55.601 91.27,103.769 z m -266.28,-74.867 c -26.04,4.629 -44.1,34.508 -43.56,60.008 -1.37,-3.348 -2.43,-6.848 -3.08,-10.559 -5.1,-28.641 14.15,-56.031 42.94,-61.16 28.84,-5.109 56.3,13.961 61.4,42.598 0.48,2.742 0.59,5.429 0.63,8.152 -9.18,-22.609 -33.24,-43.5 -58.33,-39.039 z m -98.19,23.957 c 6.53,0 12.8,0.781 18.84,2.203 -10.17,-4.113 -21.44,-6.383 -33.21,-6.383 -46.69,0 -84.49,35.461 -84.49,79.242 0,43.758 37.8,79.231 84.49,79.231 4.85,0 9.56,-0.461 14.19,-1.18 -44.16,-0.121 -79.92,-34.351 -79.92,-76.562 0,-42.309 35.84,-76.551 80.1,-76.551 z m 465.83,200.781 c -10.57,1.52 -20.89,1.711 -30.59,0.82 3.34,-0.281 6.72,-0.64 10.12,-1.121 55.81,-8.109 96.86,-44.039 91.57,-80.289 -0.43,-3.011 -1.27,-5.89 -2.31,-8.711 5.19,6.032 8.6,12.891 9.68,20.532 4.54,31.039 -30.62,61.82 -78.47,68.769 z m -78.37,95.879 c -43.89,26.949 -93.67,25.77 -111.23,-2.75 -4.06,-6.648 -5.92,-14.219 -5.97,-22.187 0.85,4.808 2.21,9.437 4.8,13.617 16.51,26.851 63.41,27.98 104.78,2.601 41.38,-25.449 61.56,-67.808 45.02,-94.672 -5.55,-9.078 -14.77,-14.937 -25.91,-18.128 15.82,2.312 28.95,9.199 36.29,21.101 17.56,28.469 -3.89,73.449 -47.78,100.418 z m -295.23,-77.59 c 0.63,-3.847 1.67,-7.57 2.86,-11.179 -5.57,8.41 -9.47,17.75 -11.05,27.902 -7.65,48.437 37.57,95.859 101.08,105.848 58.44,9.199 82.74,-5.711 107.18,-38.622 -31.34,19.481 -48.74,29.813 -98.97,21.942 -63.47,-10.039 -108.72,-57.43 -101.1,-105.891"
           style="fill:url(#radialGradient1756);fill-opacity:1;fill-rule:nonzero;stroke:none"
           id="path1758" />
      </g>
    </g>
    <path
       inkscape:connector-curvature="0"
       d="m 88.877542,444.55983 c -1.315156,0 -2.505075,-0.52349 -3.228975,-1.40974 -0.412397,0.43466 -0.976136,0.67994 -1.576917,0.67994 -0.124883,0 -0.253647,-0.0106 -0.382411,-0.0332 -0.646289,-0.11532 -1.203325,-0.51579 -1.524,-1.08451 -0.535869,0.29256 -1.139119,0.44387 -1.75648,0.44387 -1.946275,0 -3.5306,-1.49116 -3.5306,-3.32243 0,-1.66687 1.29293,-3.05787 3.030713,-3.28718 0.07091,-1.12959 1.031523,-2.02639 2.203803,-2.02639 0.191206,0 0.379589,0.0244 0.564092,0.0735 -0.144992,-1.82813 1.57727,-3.56912 3.948994,-3.94272 0.302331,-0.0473 0.606073,-0.0719 0.90805,-0.0719 1.118659,0 2.150887,0.3241 2.917473,0.9168 0.212725,-0.0487 0.442736,-0.0733 0.682272,-0.0733 0.786341,0 1.648178,0.26349 2.427464,0.74179 1.229077,0.75572 2.045758,1.93079 2.079272,2.9712 l 0.09631,0.0127 c 0.94862,0.13684 1.806222,0.50768 2.418292,1.04344 0.63253,0.55316 0.926041,1.21684 0.832203,1.86973 -0.01588,0.10558 -0.04163,0.21029 -0.07902,0.31185 1.671813,0.46084 2.747433,1.60419 2.578803,2.77001 -0.16404,1.13454 -1.46332,1.92511 -3.160533,1.92511 -0.257881,0 -0.522111,-0.019 -0.78352,-0.0557 -0.566208,-0.083 -1.116894,-0.25506 -1.599141,-0.49953 -0.403578,0.38308 -0.945092,0.60081 -1.502128,0.60081 -0.125942,0 -0.255058,-0.0106 -0.384528,-0.0335 -0.469194,-0.0841 -0.894291,-0.31792 -1.217436,-0.66643 -0.609247,1.07848 -1.806928,1.86754 -3.188053,2.08527 -0.257527,0.0402 -0.518583,0.0606 -0.773994,0.0606"
       style="fill:#242b2c;fill-opacity:1;fill-rule:nonzero;stroke:none;stroke-width:0.03527778"
       id="path1760" />
    <g
       transform="matrix(0.03527778,0,0,-0.03527778,-47.171202,454.71598)"
       id="g1762">
      <g
         id="g1764"
         clip-path="url(#clipPath1768)">
        <path
           inkscape:connector-curvature="0"
           d="m 4134.53,460.129 c 1.97,3.973 3.3,8.211 3.96,12.66 5.11,34.93 -34.46,69.543 -88.22,77.32 -2.28,0.34 -4.48,0.551 -6.72,0.762 1.28,28.168 -20.38,62.109 -56.7,84.469 -30.04,18.461 -62.56,24.191 -86.81,17.859 -25.87,20.832 -65.05,30.961 -106.67,24.41 -67.44,-10.589 -115.48,-60.918 -107.35,-112.41 l 0.31,-1.449 c -6.68,2.629 -13.93,4.148 -21.57,4.148 -32.05,0 -58,-25.359 -58,-56.617 l 0.03,-0.34 c -48.24,-4.5 -85.85,-42.652 -85.85,-89.082 0,-49.449 42.76,-89.57 95.48,-89.57 19.1,0 36.83,5.313 51.71,14.359 7.57,-16.476 22.85,-29.136 42.11,-32.558 21.63,-3.871 42.3,5.051 54.94,21.039 22.22,-30.957 65.86,-48.277 112.53,-40.957 41.95,6.598 75.42,31.488 90.2,62.859 8.41,-11.519 21.05,-19.961 36.22,-22.66 19.83,-3.531 39.03,3.609 51.84,17.211 13.42,-7.312 29.32,-12.703 46.84,-15.25 53.77,-7.801 101.53,14.137 106.54,49.066 4.66,31.973 -28.05,63.551 -74.82,74.731"
           style="fill:url(#radialGradient1774);fill-opacity:1;fill-rule:nonzero;stroke:none"
           id="path1776" />
      </g>
    </g>
    <g
       transform="matrix(0.03527778,0,0,-0.03527778,-47.171202,454.71598)"
       id="g1778">
      <g
         id="g1780"
         clip-path="url(#clipPath1784)">
        <path
           inkscape:connector-curvature="0"
           d="m 3776.39,386.59 c -2.97,18.84 2.64,37.43 14.33,53.191 -20.53,-17.359 -31.84,-41.929 -27.87,-67.07 6.57,-41.82 52.67,-69.281 103.02,-61.391 16.65,2.649 31.59,8.852 43.99,17.418 -6.92,-2.379 -14.16,-4.297 -21.76,-5.5 -54.89,-8.617 -104.83,19.742 -111.71,63.352 z m 352.53,65.59 c 37.8,-13.578 62.19,-36.93 58.49,-59.95 -4.81,-30.589 -57.34,-48.941 -117.25,-41.011 l -0.06,0.031 c 9.01,-3.141 18.81,-5.48 29.17,-6.879 51.18,-6.769 96.56,12.309 101.32,42.688 4.46,27.91 -26.92,55.543 -71.67,65.121 z m -454.06,104.062 c 5.89,0 11.47,-1.062 16.86,-2.551 -8.14,5.797 -18.06,9.321 -28.91,9.321 -27.15,0 -49.12,-21.461 -49.12,-47.973 0,-2.539 0.36,-4.937 0.74,-7.398 5.53,27.679 30.44,48.601 60.43,48.601 z M 4006.47,345.73 c -15.16,2.7 -27.8,11.071 -36.46,22.391 7.31,-14.012 20.71,-24.742 37.51,-27.723 23.4,-4.179 45.67,7.75 56.01,27.684 -12.96,-16.941 -34.54,-26.363 -57.06,-22.352 z m -44.62,54.18 c -0.96,5.899 -2.65,11.531 -4.97,16.82 0.23,-1.121 0.53,-2.242 0.72,-3.39 7.04,-44.668 -29.88,-87.602 -82.53,-95.871 -52.63,-8.321 -100.96,21.211 -107.97,65.89 -0.22,1.262 -0.25,2.52 -0.39,3.813 -0.62,-5.91 -0.55,-11.863 0.41,-17.91 7.02,-44.68 56.3,-74.063 110.1,-65.59 53.8,8.488 91.66,51.547 84.63,96.238 z m -246.93,-69.418 c -24.12,4.278 -40.84,31.996 -40.37,55.637 -1.27,-3.109 -2.26,-6.348 -2.85,-9.82 -4.71,-26.528 13.11,-51.93 39.81,-56.68 26.75,-4.758 52.22,12.941 56.94,39.5 0.45,2.519 0.52,5.019 0.58,7.543 -8.5,-20.942 -30.83,-40.313 -54.11,-36.18 z m -91.03,22.188 c 6.04,0 11.86,0.742 17.49,2.062 -9.47,-3.812 -19.86,-5.933 -30.8,-5.933 -43.27,0 -78.35,32.91 -78.35,73.492 0,40.558 35.08,73.461 78.35,73.461 4.49,0 8.86,-0.442 13.15,-1.102 -40.93,-0.121 -74.09,-31.84 -74.09,-71 0,-39.211 33.25,-70.98 74.25,-70.98 z m 431.93,186.179 c -9.81,1.43 -19.37,1.582 -28.36,0.743 3.07,-0.243 6.23,-0.563 9.37,-1.02 51.76,-7.531 89.81,-40.863 84.92,-74.461 -0.41,-2.789 -1.2,-5.473 -2.15,-8.101 4.81,5.601 7.97,11.98 8.95,19.05 4.23,28.821 -28.38,57.371 -72.73,63.789 z m -72.68,88.871 c -40.69,25.032 -86.83,23.918 -103.1,-2.531 -3.77,-6.16 -5.51,-13.148 -5.58,-20.609 0.79,4.512 2.08,8.75 4.48,12.66 15.29,24.891 58.79,25.941 97.14,2.422 38.36,-23.613 57.09,-62.891 41.75,-87.801 -5.16,-8.391 -13.7,-13.84 -24.01,-16.762 14.67,2.121 26.82,8.493 33.62,19.52 16.27,26.422 -3.61,68.121 -44.3,93.101 z m -273.71,-71.91 c 0.55,-3.578 1.52,-7.031 2.65,-10.39 -5.17,7.832 -8.78,16.48 -10.27,25.871 -7.08,44.941 34.87,88.871 93.74,98.168 54.19,8.5 76.71,-5.297 99.35,-35.789 -29.03,18.019 -45.19,27.609 -91.75,20.3 -58.87,-9.289 -100.83,-53.23 -93.72,-98.16"
           style="fill:url(#radialGradient1790);fill-opacity:1;fill-rule:nonzero;stroke:none"
           id="path1792" />
      </g>
    </g>
  </g>
</svg>
