<?xml version="1.0" encoding="UTF-8" standalone="no"?> <!-- Created with 
Inkscape (http://www.inkscape.org/) --> <svg
   xmlns:dc="http://purl.org/dc/elements/1.1/"
   xmlns:cc="http://creativecommons.org/ns#"
   xmlns:rdf="http://www.w3.org/1999/02/22-rdf-syntax-ns#"
   xmlns:svg="http://www.w3.org/2000/svg"
   xmlns="http://www.w3.org/2000/svg"
   xmlns:sodipodi="http://sodipodi.sourceforge.net/DTD/sodipodi-0.dtd"
   xmlns:inkscape="http://www.inkscape.org/namespaces/inkscape"
   width="2.52072mm"
   height="2.52072mm"
   viewBox="0 0 2.52072 2.52072"
   version="1.1"
   id="svg4706"
   inkscape:version="0.92.1 r15371"
   sodipodi:docname="squeezebox.svg">
  <defs
     id="defs4700" />
  <sodipodi:namedview
     id="base"
     pagecolor="#ffffff"
     bordercolor="#666666"
     borderopacity="1.0"
     inkscape:pageopacity="0.0"
     inkscape:pageshadow="2"
     inkscape:zoom="11.2"
     inkscape:cx="7.0899757"
     inkscape:cy="-25.337002"
     inkscape:document-units="mm"
     inkscape:current-layer="g9"
     showgrid="true"
     inkscape:window-width="872"
     inkscape:window-height="583"
     inkscape:window-x="573"
     inkscape:window-y="352"
     inkscape:window-maximized="0"
     objecttolerance="10000"
     inkscape:snap-bbox="true"
     inkscape:snap-nodes="true"
     inkscape:snap-center="false"
     inkscape:snap-others="false"
     inkscape:snap-global="true"
     fit-margin-top="0"
     fit-margin-left="0"
     fit-margin-right="0"
     fit-margin-bottom="0" />
  <metadata
     id="metadata4703">
    <rdf:RDF>
      <cc:Work
         rdf:about="">
        <dc:format>image/svg+xml</dc:format>
        <dc:type
           rdf:resource="http://purl.org/dc/dcmitype/StillImage" />
        <dc:title></dc:title>
      </cc:Work>
    </rdf:RDF>
  </metadata>
  <g
     inkscape:label="Layer 1"
     inkscape:groupmode="layer"
     id="layer1"
     transform="translate(-35.781307,-24.1165)">
    <g
       style="display:block"
       transform="matrix(0.0063018,0,0,0.0063018,35.781307,24.1165)"
       id="g9">
      <g
         id="svgg">
        <path
           d=""
           id="path0"
           inkscape:connector-curvature="0"
           style="fill:#000000;fill-rule:evenodd;stroke:none" />
        <path
           d="M 90.338,78.338 88,80.677 v 75.517 75.518 l -2.862,3.344 
-2.863,3.344 h -19.19 c -21.604,0 -21.142,-0.11 -25.028,5.964 
-2.054,3.212 -3.679,4.725 -6.335,5.9 -2.665,1.179 -4.282,2.688 
-6.362,5.94 -1.534,2.398 -4.082,5.159 -5.661,6.135 -5.309,3.281 
-6.099,4.994 -6.099,13.219 0,8.058 0.259,8.544 6.997,13.166 1.428,0.979 
3.543,3.394 4.698,5.367 1.312,2.237 3.696,4.605 6.34,6.297 2.68,1.714 
5.028,4.059 6.386,6.375 3.613,6.166 3.076,6.037 25.218,6.037 22.161,0 
20.474,0.456 24.75,-6.685 1.016,-1.697 3.73,-4.29 6.031,-5.762 
2.624,-1.679 4.982,-4.039 6.326,-6.332 1.178,-2.011 3.653,-4.619 
5.498,-5.795 1.846,-1.176 4.166,-2.851 5.156,-3.722 l 1.8,-1.583 v 
-69.316 -69.317 l 2.862,-3.344 2.863,-3.344 h 44.337 44.338 l 3.2,3.2 
3.2,3.2 v 44 44 l -3.2,3.2 -3.2,3.2 h -19.253 c -21.642,0 -21.209,-0.102 
-25.044,5.893 -1.982,3.098 -3.771,4.77 -6.61,6.177 -3.095,1.535 
-4.268,2.715 -5.722,5.758 -1.359,2.846 -2.944,4.542 -6.177,6.61 
-5.594,3.579 -5.994,4.445 -5.994,12.97 0,7.919 0.057,8.019 7.046,12.478 
2.363,1.507 3.919,3.299 4.947,5.697 1.124,2.624 2.598,4.202 5.89,6.308 
2.824,1.806 5.156,4.115 6.538,6.472 3.616,6.171 3.053,6.037 25.419,6.037 
h 19.883 l 2.139,-2.292 c 1.176,-1.261 3.116,-3.769 4.311,-5.573 
1.195,-1.805 3.575,-4.166 5.289,-5.248 1.713,-1.082 4.085,-3.622 
5.271,-5.645 1.19,-2.031 3.658,-4.636 5.511,-5.816 1.846,-1.176 
4.166,-2.851 5.156,-3.722 l 1.8,-1.583 V 181.799 80.677 L 235.262,78.338 
232.923,76 H 162.8 92.677 l -2.339,2.338 m 225.333,12.123 c -2.048,2.434 
-2.071,2.611 -2.071,15.892 0,15.007 0.209,15.668 6.099,19.308 
1.579,0.976 4.076,3.658 5.548,5.959 1.659,2.592 4.04,4.982 6.262,6.285 
5.633,3.3 6.891,5.651 6.891,12.871 0,7.477 0.494,8.467 5.972,11.972 
6.316,4.04 6.028,2.244 6.028,37.652 0,35.408 0.288,33.612 -6.028,37.652 
-5.478,3.505 -5.972,4.495 -5.972,11.972 0,7.22 -1.258,9.571 
-6.891,12.871 -2.222,1.303 -4.603,3.693 -6.262,6.285 -1.472,2.301 
-3.969,4.983 -5.548,5.959 -5.893,3.642 -6.099,4.296 -6.099,19.356 v 
13.48 l 2.308,2.583 c 3.007,3.365 5.269,2.477 9.153,-3.595 1.768,-2.764 
4.187,-5.194 6.725,-6.755 2.512,-1.546 4.753,-3.788 6.122,-6.124 
1.379,-2.352 3.812,-4.777 6.726,-6.705 2.986,-1.975 5.056,-4.057 
5.982,-6.019 0.931,-1.974 2.907,-3.954 5.777,-5.79 5.585,-3.573 
6.007,-4.466 6.007,-12.717 V 256 l 3.2,-3.2 c 1.76,-1.76 3.894,-3.2 
4.742,-3.2 4.871,0 4.858,0.129 4.858,-49.2 0,-50.76 0.398,-47.587 
-6.302,-50.268 -5.045,-2.018 -6.498,-4.816 -6.498,-12.508 0,-7.908 
-0.452,-8.84 -6.007,-12.394 -2.87,-1.836 -4.846,-3.816 -5.777,-5.79 
-0.926,-1.962 -2.996,-4.044 -5.982,-6.019 -2.891,-1.912 -5.348,-4.355 
-6.699,-6.659 -1.342,-2.291 -3.702,-4.643 -6.37,-6.35 -2.68,-1.714 
-5.028,-4.059 -6.386,-6.375 -3.75,-6.399 -6.319,-7.365 -9.508,-3.576 m 
-50.133,50.277 c -2.223,2.224 -2.338,2.678 -2.338,9.253 0,8.307 
0.42,9.205 5.96,12.749 2.772,1.773 5.091,4.085 6.488,6.47 1.196,2.041 
3.536,4.57 5.2,5.62 1.663,1.05 3.953,3.127 5.088,4.615 l 2.064,2.706 v 
18.249 18.249 l -2.064,2.706 c -1.135,1.488 -3.425,3.565 -5.088,4.615 
-1.664,1.05 -4.004,3.579 -5.2,5.62 -1.397,2.385 -3.716,4.697 -6.488,6.47 
-5.54,3.544 -5.96,4.442 -5.96,12.749 0,10.055 1.617,11.591 12.199,11.591 
8.326,0 8.709,-0.201 12.528,-6.586 1.921,-3.211 5.564,-6.214 
7.538,-6.214 2.93,0 4.535,-3.887 4.535,-10.984 0,-7.918 1.127,-10.134 
6.866,-13.497 6.037,-3.538 5.934,-3.107 5.934,-24.719 0,-21.612 
0.103,-21.181 -5.934,-24.719 -5.739,-3.363 -6.866,-5.579 -6.866,-13.497 
0,-7.859 -1.116,-9.976 -6.364,-12.076 -2.148,-0.86 -3.906,-2.396 
-5.371,-4.693 -4.465,-7.003 -4.488,-7.015 -12.866,-7.015 -7.247,0 
-7.608,0.085 -9.861,2.338"
           id="path1"
           inkscape:connector-curvature="0"
           style="fill:#ffffff;fill-rule:evenodd;stroke:none"
           class="ha-leave-me-alone" />
        <path
           d="M 44,3.179 V 6.358 L 31.8,6.579 19.6,6.8 19.136,12.197 c 
-0.567,6.599 -0.34,6.372 -6.939,6.939 L 6.8,19.6 6.579,31.8 6.358,44 H 
3.179 0 v 156 156 h 3.2 3.2 v 11.84 c 0,13.816 -0.028,13.76 6.924,13.76 
h 5.003 l 0.432,2.6 c 0.237,1.43 0.523,4.04 0.636,5.8 0.118,1.848 
0.627,3.242 1.205,3.3 0.55,0.055 6.04,0.145 12.2,0.2 l 11.2,0.1 v 3.2 
3.2 h 156 156 v -3.18 -3.179 l 12.6,-0.221 12.6,-0.22 0.234,-5.766 
0.235,-5.765 5.765,-0.235 5.766,-0.234 0.22,-12.6 0.221,-12.6 H 396.82 
400 V 200 44 h -3.2 -3.2 l -0.1,-11.2 c -0.055,-6.16 -0.145,-11.65 
-0.2,-12.2 -0.058,-0.578 -1.452,-1.087 -3.3,-1.205 -1.76,-0.113 
-4.37,-0.399 -5.8,-0.636 l -2.6,-0.432 V 13.324 C 381.6,6.372 
381.656,6.4 367.84,6.4 H 356 V 3.2 0 H 200 44 v 3.179 m 191.262,75.159 
2.338,2.339 v 101.122 101.122 l -1.8,1.583 c -0.99,0.871 -3.31,2.546 
-5.156,3.722 -1.853,1.18 -4.321,3.785 -5.511,5.816 -1.186,2.023 
-3.558,4.563 -5.271,5.645 -1.714,1.082 -4.094,3.443 -5.289,5.248 
-1.195,1.804 -3.135,4.312 -4.311,5.573 l -2.139,2.292 H 188.24 c 
-22.366,0 -21.803,0.134 -25.419,-6.037 -1.382,-2.357 -3.714,-4.666 
-6.538,-6.472 -3.292,-2.106 -4.766,-3.684 -5.89,-6.308 -1.028,-2.398 
-2.584,-4.19 -4.947,-5.697 -6.989,-4.459 -7.046,-4.559 -7.046,-12.478 
0,-8.525 0.4,-9.391 5.994,-12.97 3.233,-2.068 4.818,-3.764 6.177,-6.61 
1.454,-3.043 2.627,-4.223 5.722,-5.758 2.839,-1.407 4.628,-3.079 
6.61,-6.177 3.835,-5.995 3.402,-5.893 25.044,-5.893 H 207.2 l 3.2,-3.2 
3.2,-3.2 v -44 -44 l -3.2,-3.2 -3.2,-3.2 h -44.338 -44.337 l 
-2.863,3.344 -2.862,3.344 v 69.317 69.316 l -1.8,1.583 c -0.99,0.871 
-3.31,2.546 -5.156,3.722 -1.845,1.176 -4.32,3.784 -5.498,5.795 
-1.344,2.293 -3.702,4.653 -6.326,6.332 -2.301,1.472 -5.015,4.065 
-6.031,5.762 -4.276,7.141 -2.589,6.685 -24.75,6.685 -22.142,0 
-21.605,0.129 -25.218,-6.037 -1.358,-2.316 -3.706,-4.661 -6.386,-6.375 
-2.644,-1.692 -5.028,-4.06 -6.34,-6.297 -1.155,-1.973 -3.27,-4.388 
-4.698,-5.367 -6.738,-4.622 -6.997,-5.108 -6.997,-13.166 0,-8.225 
0.79,-9.938 6.099,-13.219 1.579,-0.976 4.127,-3.737 5.661,-6.135 
2.08,-3.252 3.697,-4.761 6.362,-5.94 2.656,-1.175 4.281,-2.688 
6.335,-5.9 3.886,-6.074 3.424,-5.964 25.028,-5.964 h 19.19 L 
85.138,235.056 88,231.712 V 156.194 80.677 L 90.338,78.338 92.677,76 h 
70.123 70.123 l 2.339,2.338 m 86.076,10.849 c 0.932,0.652 2.66,2.835 
3.841,4.85 1.358,2.316 3.706,4.661 6.386,6.375 2.668,1.707 5.028,4.059 
6.37,6.35 1.351,2.304 3.808,4.747 6.699,6.659 2.986,1.975 5.056,4.057 
5.982,6.019 0.931,1.974 2.907,3.954 5.777,5.79 5.555,3.554 6.007,4.486 
6.007,12.394 0,7.692 1.453,10.49 6.498,12.508 6.7,2.681 6.302,-0.492 
6.302,50.268 0,49.329 0.013,49.2 -4.858,49.2 -0.848,0 -2.982,1.44 
-4.742,3.2 l -3.2,3.2 v 6.853 c 0,8.251 -0.422,9.144 -6.007,12.717 
-2.87,1.836 -4.846,3.816 -5.777,5.79 -0.926,1.962 -2.996,4.044 
-5.982,6.019 -2.914,1.928 -5.347,4.353 -6.726,6.705 -1.369,2.336 
-3.61,4.578 -6.122,6.124 -2.538,1.561 -4.957,3.991 -6.725,6.755 
-3.884,6.072 -6.146,6.96 -9.153,3.595 l -2.308,-2.583 v -13.48 c 
0,-15.06 0.206,-15.714 6.099,-19.356 1.579,-0.976 4.076,-3.658 
5.548,-5.959 1.659,-2.592 4.04,-4.982 6.262,-6.285 5.633,-3.3 
6.891,-5.651 6.891,-12.871 0,-7.477 0.494,-8.467 5.972,-11.972 
6.316,-4.04 6.028,-2.244 6.028,-37.652 0,-35.408 0.288,-33.612 
-6.028,-37.652 -5.478,-3.505 -5.972,-4.495 -5.972,-11.972 0,-7.22 
-1.258,-9.571 -6.891,-12.871 -2.222,-1.303 -4.603,-3.693 -6.262,-6.285 
-1.472,-2.301 -3.969,-4.983 -5.548,-5.959 -5.89,-3.64 -6.099,-4.301 
-6.099,-19.308 0,-16.348 2.137,-21.089 7.738,-17.166 M 284.504,140.2 c 
0.871,0.99 2.563,3.337 3.761,5.215 1.465,2.297 3.223,3.833 5.371,4.693 
5.248,2.1 6.364,4.217 6.364,12.076 0,7.918 1.127,10.134 6.866,13.497 
6.037,3.538 5.934,3.107 5.934,24.719 0,21.612 0.103,21.181 -5.934,24.719 
-5.739,3.363 -6.866,5.579 -6.866,13.497 0,7.097 -1.605,10.984 
-4.535,10.984 -1.974,0 -5.617,3.003 -7.538,6.214 -3.819,6.385 
-4.202,6.586 -12.528,6.586 -10.582,0 -12.199,-1.536 -12.199,-11.591 
0,-8.307 0.42,-9.205 5.96,-12.749 2.772,-1.773 5.091,-4.085 6.488,-6.47 
1.196,-2.041 3.536,-4.57 5.2,-5.62 1.663,-1.05 3.953,-3.127 5.088,-4.615 
L 288,218.649 V 200.4 182.151 l -2.064,-2.706 c -1.135,-1.488 
-3.425,-3.565 -5.088,-4.615 -1.664,-1.05 -4.004,-3.579 -5.2,-5.62 
-1.397,-2.385 -3.716,-4.697 -6.488,-6.47 -5.54,-3.544 -5.96,-4.442 
-5.96,-12.749 0,-10.055 1.617,-11.591 12.199,-11.591 6.798,0 7.674,0.173 
9.105,1.8"
           id="path2"
           inkscape:connector-curvature="0"
           style="fill:#a1a1a1;fill-rule:evenodd;stroke:none" />
      </g>
    </g>
  </g> </svg>
