<?xml version="1.0" encoding="UTF-8" standalone="no"?>
<!-- Created with Inkscape (http://www.inkscape.org/) -->

<svg
   xmlns:dc="http://purl.org/dc/elements/1.1/"
   xmlns:cc="http://creativecommons.org/ns#"
   xmlns:rdf="http://www.w3.org/1999/02/22-rdf-syntax-ns#"
   xmlns:svg="http://www.w3.org/2000/svg"
   xmlns="http://www.w3.org/2000/svg"
   xmlns:sodipodi="http://sodipodi.sourceforge.net/DTD/sodipodi-0.dtd"
   xmlns:inkscape="http://www.inkscape.org/namespaces/inkscape"
   width="189.58105"
   height="189.58105"
   viewBox="0 0 189.58105 189.58105"
   id="svg4139"
   style="background-color:#000000"
   sodipodi:version="0.32"
   inkscape:version="0.92.4 (5da689c313, 2019-01-14)"
   version="1.0"
   sodipodi:docname="light.svg"
   inkscape:output_extension="org.inkscape.output.svg.inkscape">
  <defs
     id="defs4141">
    <radialGradient id="grad1" cx="50%" cy="50%" r="50%" fx="50%" fy="50%">
      <stop id="light_gradient_color_0" offset="0%" style="stop-color:rgb(0,0,255);stop-opacity:1" />
      <stop id="light_gradient_color_1" offset="100%" style="stop-color:rgb(255,255,255);stop-opacity:0" />
    </radialGradient>	 
  </defs>
  <sodipodi:namedview
     id="base"
     pagecolor="#ffffff"
     bordercolor="#666666"
     borderopacity="1.0"
     gridtolerance="10000"
     guidetolerance="10"
     objecttolerance="10"
     inkscape:pageopacity="0.0"
     inkscape:pageshadow="2"
     inkscape:zoom="2.6162951"
     inkscape:cx="-36.563736"
     inkscape:cy="50.23271"
     inkscape:document-units="px"
     inkscape:current-layer="g9145"
     height="110px"
     width="65px"
     inkscape:window-width="1920"
     inkscape:window-height="1001"
     inkscape:window-x="-9"
     inkscape:window-y="-9"
     showgrid="false"
     inkscape:window-maximized="1" />
  <metadata
     id="metadata4144">
    <rdf:RDF>
      <cc:Work
         rdf:about="">
        <dc:format>image/svg+xml</dc:format>
        <dc:type
           rdf:resource="http://purl.org/dc/dcmitype/StillImage" />
        <dc:title></dc:title>
      </cc:Work>
    </rdf:RDF>
  </metadata>
  <g
     inkscape:label="Layer 1"
     inkscape:groupmode="layer"
     id="layer1"
     transform="translate(-320.6722,-422.30392)">
    <g
       id="g9145"
       transform="matrix(0.3246143,0,0,0.3246143,311.60581,432.06822)">
      <circle
         style="display:inline;"
         id="light.office.gradient"
         cx="319.93942"
         cy="261.92999"
         r="292.0097"
		 fill="url(#grad1)"
         inkscape:label="light.office.gradient" />
      <path
         style="fill:#070000;fill-opacity:1;stroke:none;stroke-width:3.08057904;stroke-opacity:1"
         d="m 316.44191,106.84577 c -46.73812,0 -84.71592,39.08452 -84.71592,87.18279 0,24.04914 9.4941,45.85844 24.82513,61.63565 3.32605,3.42284 10.20402,13.05877 15.98652,22.92985 2.89126,4.93554 5.54661,9.97609 7.44875,14.37403 1.90213,4.39794 2.98431,8.263 2.98431,10.22849 v 37.82734 2.56314 l 2.46085,-0.012 2.03366,7.92407 v 5.08416 l 57.85713,-5.18043 0.12636,-0.0182 2.19612,-8.03839 2.26831,-0.0182 v -2.53283 -37.5987 c 0,-1.96549 1.08218,-5.83055 2.98431,-10.22849 1.90214,-4.39794 4.55749,-9.43849 7.44875,-14.37403 5.7825,-9.87109 12.66047,-19.50702 15.98652,-22.92985 15.33102,-15.7772 24.82512,-37.58651 24.82512,-61.63565 0,-48.09828 -37.97781,-87.18279 -84.71592,-87.18279 z"
         id="path5242"
         inkscape:connector-curvature="0" />
      <path
         style="fill:#ffffff;fill-opacity:1;stroke:none;stroke-width:3.08057904;stroke-opacity:1"
         d="m 316.44191,111.92992 c 44.06032,0 79.77616,36.75608 79.77616,82.09864 0,22.67128 -8.93345,43.18172 -23.37509,58.04364 -4.11712,4.23693 -10.81111,13.76365 -16.74463,23.89254 -2.96677,5.06444 -5.70535,10.23682 -7.73153,14.92155 -2.02618,4.68473 -3.40549,8.77867 -3.40549,12.31029 v 35.06565 l -57.03884,0.21059 v -35.27624 c 0,-3.53162 -1.37931,-7.62556 -3.40549,-12.31029 -2.02618,-4.68473 -4.76476,-9.85711 -7.73153,-14.92155 -5.93352,-10.12889 -12.62751,-19.65561 -16.74463,-23.89254 -14.44165,-14.86193 -23.3751,-35.37236 -23.3751,-58.04364 1e-5,-45.34256 35.71584,-82.09864 79.77617,-82.09864 z"
         id="light.office"
         inkscape:connector-curvature="0"
         inkscape:label="light.office" />
      <path
         style="fill:#070000;fill-opacity:1;stroke:none;stroke-width:3.08057904;stroke-opacity:1"
         d="m 344.86506,353.51471 -56.79817,5.09619 -0.60168,1.0409 -1.85918,3.23099 1.87723,3.231 0.51744,0.91455 56.81623,-5.08416 0.60168,-1.0409 1.85917,-3.21896 -1.85917,-3.21295 z"
         id="path5238"
         inkscape:connector-curvature="0" />
      <path
         style="fill:#070000;fill-opacity:1;stroke:none;stroke-width:3.08057904;stroke-opacity:1"
         d="m 345.41861,363.97183 -57.85713,5.19847 h -0.0782 v 3.00236 l 57.83907,-5.18042 0.0963,-0.0182 z"
         id="path5236"
         inkscape:connector-curvature="0" />
      <path
         style="fill:#070000;fill-opacity:1;stroke:none;stroke-width:3.08057904;stroke-opacity:1"
         d="m 344.86506,369.10412 -56.79817,5.10221 -0.58363,1.0048 -1.87723,3.26709 1.87723,3.24304 0.51744,0.89649 56.81623,-5.08415 0.60168,-1.0409 1.85917,-3.21295 -1.85917,-3.21897 z"
         id="path5234"
         inkscape:connector-curvature="0" />
      <path
         style="fill:#070000;fill-opacity:1;stroke:none;stroke-width:3.08057904;stroke-opacity:1"
         d="m 345.41861,379.56124 -57.85713,5.19848 h -0.0782 v 3.00236 l 57.83907,-5.18043 0.0963,-0.012 z"
         id="path5232"
         inkscape:connector-curvature="0" />
      <path
         style="fill:#070000;fill-opacity:1;stroke:none;stroke-width:3.08057904;stroke-opacity:1"
         d="m 344.86506,384.69353 -56.79817,5.10221 -0.58363,1.0048 -1.87723,3.2671 1.89528,3.26108 0.49939,0.87845 56.81623,-5.08416 0.60168,-1.03488 1.85917,-3.21897 -1.85917,-3.21295 z"
         id="path5230"
         inkscape:connector-curvature="0" />
      <path
         style="fill:#070000;fill-opacity:1;stroke:none;stroke-width:3.08057904;stroke-opacity:1"
         d="m 345.41861,395.15667 -57.85713,5.19246 h -0.0602 v 3.02642 l 9.98781,6.20327 0.22263,-0.91453 h 37.60473 l 0.22263,0.91453 9.87951,-6.20327 z"
         id="path5228"
         inkscape:connector-curvature="0" />
      <path
         style="fill:#070000;fill-opacity:1;stroke:none;stroke-width:3.08057904;stroke-opacity:1"
         d="m 301.70086,410.74608 5.8904,3.24906 0.51744,0.28865 v 0.61988 h 16.79277 v -0.61972 l 0.53549,-0.28866 5.87235,-3.24905 z"
         id="rect5149"
         inkscape:connector-curvature="0" />
    </g>
  </g>
</svg>
