<?xml version="1.0" encoding="UTF-8" standalone="no"?>
<!-- Created with Inkscape (http://www.inkscape.org/) -->

<svg
   xmlns:dc="http://purl.org/dc/elements/1.1/"
   xmlns:cc="http://creativecommons.org/ns#"
   xmlns:rdf="http://www.w3.org/1999/02/22-rdf-syntax-ns#"
   xmlns:svg="http://www.w3.org/2000/svg"
   xmlns="http://www.w3.org/2000/svg"
   xmlns:sodipodi="http://sodipodi.sourceforge.net/DTD/sodipodi-0.dtd"
   xmlns:inkscape="http://www.inkscape.org/namespaces/inkscape"
   width="65"
   height="110"
   id="svg4139"
   sodipodi:version="0.32"
   inkscape:version="0.92.4 (5da689c313, 2019-01-14)"
   version="1.0"
   sodipodi:docname="light-bulb.svg"
   inkscape:output_extension="org.inkscape.output.svg.inkscape">
  <defs
     id="defs4141" />
  <sodipodi:namedview
     id="base"
     pagecolor="#ffffff"
     bordercolor="#666666"
     borderopacity="1.0"
     gridtolerance="10000"
     guidetolerance="10"
     objecttolerance="10"
     inkscape:pageopacity="0.0"
     inkscape:pageshadow="2"
     inkscape:zoom="7.4"
     inkscape:cx="16.247891"
     inkscape:cy="56.586923"
     inkscape:document-units="px"
     inkscape:current-layer="g9145"
     height="110px"
     width="65px"
     inkscape:window-width="1920"
     inkscape:window-height="1001"
     inkscape:window-x="-9"
     inkscape:window-y="-9"
     showgrid="false"
     inkscape:window-maximized="1" />
  <metadata
     id="metadata4144">
    <rdf:RDF>
      <cc:Work
         rdf:about="">
        <dc:format>image/svg+xml</dc:format>
        <dc:type
           rdf:resource="http://purl.org/dc/dcmitype/StillImage" />
        <dc:title></dc:title>
      </cc:Work>
    </rdf:RDF>
  </metadata>
  <g
     inkscape:label="Layer 1"
     inkscape:groupmode="layer"
     id="layer1"
     transform="translate(-314.9389,-506.47161)">
    <g
       id="g9145"
       transform="matrix(0.3246143,0,0,0.3246143,311.60581,432.06822)">
      <path
         style="fill:#070000;fill-opacity:1;stroke:none;stroke-width:1;stroke-opacity:1"
         d="M 32.5,5 C 17.328137,5 5.0000003,17.687395 5,33.300781 c 5e-7,7.806695 3.0819207,14.886306 8.058594,20.007813 1.079684,1.111104 3.312369,4.239064 5.189453,7.443359 0.938543,1.602148 1.800508,3.238382 2.417969,4.666016 0.61746,1.427634 0.96875,2.682286 0.96875,3.320312 v 12.279297 0.832031 l 0.798828,-0.0039 0.660156,2.572266 v 1.65039 l 18.78125,-1.68164 0.04102,-0.0059 0.71289,-2.609375 0.736328,-0.0059 V 80.943359 68.738281 c 0,-0.638026 0.35129,-1.892678 0.96875,-3.320312 0.617461,-1.427634 1.479426,-3.063868 2.417969,-4.666016 1.877084,-3.204297 4.10977,-6.332257 5.189453,-7.443359 C 56.918079,48.18709 60,41.107478 60,33.300781 60,17.687394 47.67186,5 32.5,5 Z"
         transform="matrix(3.080579,0,0,3.080579,10.267847,229.20552)"
         id="path5242"
         inkscape:connector-curvature="0" />
      <path
         style="fill:#ffffff;fill-opacity:1;stroke:none;stroke-width:1;stroke-opacity:1"
         d="m 32.5,6.6503906 c 14.302611,0 25.896484,11.9315484 25.896484,26.6503904 0,7.359424 -2.899926,14.017404 -7.58789,18.841797 -1.336477,1.375369 -3.50944,4.467878 -5.435547,7.75586 -0.963054,1.643991 -1.852039,3.323019 -2.509766,4.84375 -0.657726,1.52073 -1.105468,2.849681 -1.105469,3.996093 v 11.382813 l -18.515624,0.06836 V 68.738281 c 0,-1.146412 -0.447743,-2.475363 -1.105469,-3.996093 -0.657727,-1.520731 -1.546712,-3.19976 -2.509766,-4.84375 -1.926107,-3.287982 -4.09907,-6.380491 -5.435547,-7.75586 C 9.5034414,47.318183 6.6035156,40.660205 6.6035156,33.300781 6.6035164,18.581939 18.197386,6.6503906 32.5,6.6503906 Z"
         transform="matrix(3.080579,0,0,3.080579,10.267847,229.20552)"
         id="light.office"
         inkscape:connector-curvature="0"
         inkscape:label="light.office" />
      <path
         style="fill:#070000;fill-opacity:1;stroke:none;stroke-width:1;stroke-opacity:1"
         d="m 41.726562,85.072266 -18.4375,1.654296 -0.195312,0.337891 -0.603516,1.048828 0.609375,1.048828 0.167969,0.296875 18.44336,-1.65039 0.195312,-0.337891 0.603516,-1.044922 -0.603516,-1.042969 z"
         transform="matrix(3.080579,0,0,3.080579,10.267847,229.20552)"
         id="path5238"
         inkscape:connector-curvature="0" />
      <path
         style="fill:#070000;fill-opacity:1;stroke:none;stroke-width:1;stroke-opacity:1"
         d="m 41.90625,88.466797 -18.78125,1.6875 h -0.02539 v 0.974609 l 18.775391,-1.68164 0.03125,-0.0059 z"
         transform="matrix(3.080579,0,0,3.080579,10.267847,229.20552)"
         id="path5236"
         inkscape:connector-curvature="0" />
      <path
         style="fill:#070000;fill-opacity:1;stroke:none;stroke-width:1;stroke-opacity:1"
         d="m 41.726562,90.132812 -18.4375,1.65625 -0.189453,0.326172 -0.609375,1.060547 0.609375,1.052735 0.167969,0.291015 18.44336,-1.65039 0.195312,-0.337891 0.603516,-1.042969 -0.603516,-1.044922 z"
         transform="matrix(3.080579,0,0,3.080579,10.267847,229.20552)"
         id="path5234"
         inkscape:connector-curvature="0" />
      <path
         style="fill:#070000;fill-opacity:1;stroke:none;stroke-width:1;stroke-opacity:1"
         d="m 41.90625,93.527344 -18.78125,1.6875 h -0.02539 v 0.974609 l 18.77539,-1.681641 0.03125,-0.0039 z"
         transform="matrix(3.080579,0,0,3.080579,10.267847,229.20552)"
         id="path5232"
         inkscape:connector-curvature="0" />
      <path
         style="fill:#070000;fill-opacity:1;stroke:none;stroke-width:1;stroke-opacity:1"
         d="m 41.726562,95.193359 -18.4375,1.65625 -0.189453,0.326172 -0.609375,1.060547 0.615235,1.058594 0.162109,0.285156 18.44336,-1.65039 0.195312,-0.335938 0.603516,-1.044922 -0.603516,-1.042969 z"
         transform="matrix(3.080579,0,0,3.080579,10.267847,229.20552)"
         id="path5230"
         inkscape:connector-curvature="0" />
      <path
         style="fill:#070000;fill-opacity:1;stroke:none;stroke-width:1;stroke-opacity:1"
         d="M 41.90625,98.589844 23.125,100.27539 h -0.01953 v 0.98242 l 3.242187,2.01367 0.07227,-0.29687 h 12.207031 l 0.07227,0.29687 3.207031,-2.01367 z"
         transform="matrix(3.080579,0,0,3.080579,10.267847,229.20552)"
         id="path5228"
         inkscape:connector-curvature="0" />
      <path
         style="fill:#070000;fill-opacity:1;stroke:none;stroke-width:1;stroke-opacity:1"
         d="m 27.714844,103.65039 1.912109,1.05469 0.167969,0.0937 V 105 h 5.451172 v -0.20117 l 0.173828,-0.0937 1.90625,-1.05469 z"
         transform="matrix(3.080579,0,0,3.080579,10.267847,229.20552)"
         id="rect5149"
         inkscape:connector-curvature="0" />
    </g>
  </g>
</svg>
