<?xml version="1.0" encoding="UTF-8" standalone="no"?>
<!-- Created with Inkscape (http://www.inkscape.org/) -->

<svg
   xmlns:dc="http://purl.org/dc/elements/1.1/"
   xmlns:cc="http://creativecommons.org/ns#"
   xmlns:rdf="http://www.w3.org/1999/02/22-rdf-syntax-ns#"
   xmlns:svg="http://www.w3.org/2000/svg"
   xmlns="http://www.w3.org/2000/svg"
   xmlns:sodipodi="http://sodipodi.sourceforge.net/DTD/sodipodi-0.dtd"
   xmlns:inkscape="http://www.inkscape.org/namespaces/inkscape"
   width="41.2864mm"
   height="26.100618mm"
   viewBox="0 0 41.2864 26.100618"
   version="1.1"
   id="svg10949"
   inkscape:version="0.92.4 (5da689c313, 2019-01-14)"
   sodipodi:docname="windy.svg">
  <defs
     id="defs10943">
    <clipPath
       id="clipPath8976"
       clipPathUnits="userSpaceOnUse">
      <path
         inkscape:connector-curvature="0"
         id="path8974"
         d="m 2761.19,1835.3 c -0.96,0 -1.93,0.02 -2.89,0.06 20.74,18.61 99.33,67.69 43.62,103.21 20.17,8.01 51.2,21.54 62.96,43.13 12.46,22.91 8.23,54.71 -21.13,54.71 -2.58,0 -5.37,-0.25 -8.34,-0.77 23.9,19.81 22.09,95.23 -16.8,95.23 -0.46,0 -0.92,-0.01 -1.39,-0.04 40.95,51.19 8.21,112.68 -41.63,112.68 -13.82,0 -28.95,-4.72 -44.19,-15.7 10.62,35.33 8.82,81.26 -31.19,95.12 -6.26,2.17 -13.03,3.18 -19.97,3.18 -22.82,0 -47.4,-11.01 -61.39,-28.18 10.21,27.5 36.46,40.54 62.93,40.54 35.86,0 72.1,-23.95 69.29,-68.3 9.01,3.05 19.59,4.64 30.54,4.64 27.31,0 56.88,-9.9 69.86,-31.78 16.11,-27.16 12.91,-84.03 -16.06,-101.38 20.69,-11.2 30.93,-25.01 34.27,-49.01 2.15,-15.42 -6.77,-25.77 -0.29,-39.68 2.82,-6.04 21.41,-11.77 26.38,-22.16 19.2,-40.16 -42.43,-88.67 -75.78,-104.75 33.86,-42.27 -10.16,-90.75 -58.8,-90.75 m -153.41,438.34 c 1.26,8.93 5.25,17.14 11.07,24.29 -1.46,-3.95 -2.6,-8.19 -3.35,-12.74 l -7.72,-11.55" />
    </clipPath>
    <linearGradient
       id="linearGradient8984"
       spreadMethod="pad"
       gradientTransform="matrix(1170.34,0,0,-1170.34,1766.67,2053.92)"
       gradientUnits="userSpaceOnUse"
       y2="0"
       x2="1"
       y1="0"
       x1="0">
      <stop
         id="stop8978"
         offset="0"
         style="stop-opacity:1;stop-color:#f8f9fd" />
      <stop
         id="stop8980"
         offset="0.546341"
         style="stop-opacity:1;stop-color:#cfe7f4" />
      <stop
         id="stop8982"
         offset="1"
         style="stop-opacity:1;stop-color:#5d8aa8" />
    </linearGradient>
    <clipPath
       id="clipPath8958"
       clipPathUnits="userSpaceOnUse">
      <path
         inkscape:connector-curvature="0"
         id="path8956"
         d="m 1856.42,2407.22 c 154.24,66.28 233.4,-71.16 311,-182.6 30.2,-43.36 81.31,-139.19 149.17,-120.52 82.11,22.61 38.02,149.41 -11.67,99.54 25.59,85.76 138.26,-23.98 56.23,-99.22 -61.49,-56.44 -160.98,-15.48 -204.69,30.8 -98.84,104.69 -104.28,283.68 -300.04,272" />
    </clipPath>
    <linearGradient
       id="linearGradient8966"
       spreadMethod="pad"
       gradientTransform="matrix(534.185,0,0,-534.185,1856.42,2250.79)"
       gradientUnits="userSpaceOnUse"
       y2="0"
       x2="1"
       y1="0"
       x1="0">
      <stop
         id="stop8960"
         offset="0"
         style="stop-opacity:1;stop-color:#f7f7fb" />
      <stop
         id="stop8962"
         offset="0.546341"
         style="stop-opacity:1;stop-color:#cae6f4" />
      <stop
         id="stop8964"
         offset="1"
         style="stop-opacity:1;stop-color:#4e7e9f" />
    </linearGradient>
    <clipPath
       id="clipPath8940"
       clipPathUnits="userSpaceOnUse">
      <path
         inkscape:connector-curvature="0"
         id="path8938"
         d="m 1833.96,2328.7 c 225.46,34.42 266.13,-306.84 372.95,-434.44 58.31,-69.68 113.35,-104.23 196.67,-128.87 59.33,-17.57 255.58,25.31 169.09,92.12 113.33,-22.12 121.97,140.08 -19.1,125.14 3.77,18.32 -7.12,45.58 -3.4,63.93 -43.24,12.46 -80.97,6.02 -98.71,-28.1 -86.69,82.72 -104.57,-88.12 -171.56,-71.42 -34.27,8.53 -108.53,135.42 -129.04,168.81 -47.61,77.51 -187.89,359.87 -316.9,224.04" />
    </clipPath>
    <linearGradient
       id="linearGradient8948"
       spreadMethod="pad"
       gradientTransform="matrix(824.595,0,0,-824.595,1833.96,2068.87)"
       gradientUnits="userSpaceOnUse"
       y2="0"
       x2="1"
       y1="0"
       x1="0">
      <stop
         id="stop8942"
         offset="0"
         style="stop-opacity:1;stop-color:#f7f7fb" />
      <stop
         id="stop8944"
         offset="0.546341"
         style="stop-opacity:1;stop-color:#cae6f4" />
      <stop
         id="stop8946"
         offset="1"
         style="stop-opacity:1;stop-color:#4e7e9f" />
    </linearGradient>
    <clipPath
       id="clipPath8922"
       clipPathUnits="userSpaceOnUse">
      <path
         inkscape:connector-curvature="0"
         id="path8920"
         d="m 2593.4,1684.69 c -115.15,0 -242.1,42.28 -309.13,130.65 -83.04,109.51 -100.37,266.91 -177.14,381.25 -69.05,102.84 -168.72,183.12 -265.77,183.12 -25.27,0 -50.37,-5.45 -74.69,-17.35 27.87,43.45 63.74,60.79 102.73,60.79 118.31,0 265.19,-159.72 303.19,-234.25 33.11,-64.94 63.33,-165.76 113.66,-165.76 18.38,0 39.44,13.45 64.3,46.99 29.25,39.47 -7.77,110.67 66.73,133.22 10.88,3.3 21.26,4.9 30.85,4.9 18.75,0 34.42,-6.12 44.65,-17.71 -7.29,96.38 72.05,167.4 161.21,190.93 5.34,1.41 12.33,2.05 20.44,2.05 40.45,0 108.5,-16.15 135.7,-34.62 41.82,-28.37 44.96,-70.24 15.68,-77.94 8.71,1.66 16.87,2.43 24.55,2.43 109.93,0 113.89,-160.1 19.57,-178.65 1.64,0.1 3.25,0.15 4.82,0.15 46.31,0 63.14,-43.21 56.88,-86.41 -6.16,-42.53 -34.68,-85.06 -79.47,-86.37 20.4,-33.59 4,-94.46 -17.14,-126.04 -41.16,-61.47 -115.84,-98.91 -184.86,-107.81 -18.36,-2.38 -37.39,-3.57 -56.76,-3.57 m 250.35,351.72 c 29.36,0 33.59,-31.8 21.13,-54.71 -11.76,-21.59 -42.79,-35.12 -62.96,-43.13 55.71,-35.52 -22.88,-84.6 -43.62,-103.21 0.96,-0.04 1.93,-0.06 2.89,-0.06 48.64,0 92.66,48.48 58.8,90.75 33.35,16.08 94.98,64.59 75.78,104.75 -4.97,10.39 -23.56,16.12 -26.38,22.16 -6.48,13.91 2.44,24.26 0.29,39.68 -3.34,24 -13.58,37.81 -34.27,49.01 28.97,17.35 32.17,74.22 16.06,101.38 -12.98,21.88 -42.55,31.78 -69.86,31.78 -10.95,0 -21.53,-1.59 -30.54,-4.64 2.81,44.35 -33.43,68.3 -69.29,68.3 -26.47,0 -52.72,-13.04 -62.93,-40.54 -5.82,-7.15 -9.81,-15.36 -11.07,-24.29 l 7.72,11.55 c 0.75,4.55 1.89,8.79 3.35,12.74 13.99,17.17 38.57,28.18 61.39,28.18 6.94,0 13.71,-1.01 19.97,-3.18 40.01,-13.86 41.81,-59.79 31.19,-95.12 15.24,10.98 30.37,15.7 44.19,15.7 49.84,0 82.58,-61.49 41.63,-112.68 0.47,0.03 0.93,0.04 1.39,0.04 38.89,0 40.7,-75.42 16.8,-95.23 2.97,0.52 5.76,0.77 8.34,0.77" />
    </clipPath>
    <linearGradient
       id="linearGradient8930"
       spreadMethod="pad"
       gradientTransform="matrix(1170.34,0,0,-1170.34,1766.67,2053.92)"
       gradientUnits="userSpaceOnUse"
       y2="0"
       x2="1"
       y1="0"
       x1="0">
      <stop
         id="stop8924"
         offset="0"
         style="stop-opacity:1;stop-color:#f7f7fb" />
      <stop
         id="stop8926"
         offset="0.546341"
         style="stop-opacity:1;stop-color:#cae6f4" />
      <stop
         id="stop8928"
         offset="1"
         style="stop-opacity:1;stop-color:#4e7e9f" />
    </linearGradient>
  </defs>
  <sodipodi:namedview
     id="base"
     pagecolor="#ffffff"
     bordercolor="#666666"
     borderopacity="1.0"
     inkscape:pageopacity="0.0"
     inkscape:pageshadow="2"
     inkscape:zoom="1.979899"
     inkscape:cx="-74.370478"
     inkscape:cy="-13.462024"
     inkscape:document-units="mm"
     inkscape:current-layer="layer1"
     showgrid="false"
     inkscape:window-width="1920"
     inkscape:window-height="1005"
     inkscape:window-x="-9"
     inkscape:window-y="-9"
     inkscape:window-maximized="1" />
  <metadata
     id="metadata10946">
    <rdf:RDF>
      <cc:Work
         rdf:about="">
        <dc:format>image/svg+xml</dc:format>
        <dc:type
           rdf:resource="http://purl.org/dc/dcmitype/StillImage" />
        <dc:title></dc:title>
      </cc:Work>
    </rdf:RDF>
  </metadata>
  <g
     inkscape:label="Layer 1"
     inkscape:groupmode="layer"
     id="layer1"
     transform="translate(-11.52221,-102.37434)">
    <g
       transform="matrix(0.03527778,0,0,-0.03527778,-50.801986,187.90708)"
       id="g8916">
      <g
         id="g8918"
         clip-path="url(#clipPath8922)">
        <path
           inkscape:connector-curvature="0"
           d="m 2593.4,1684.69 c -115.15,0 -242.1,42.28 -309.13,130.65 -83.04,109.51 -100.37,266.91 -177.14,381.25 -69.05,102.84 -168.72,183.12 -265.77,183.12 -25.27,0 -50.37,-5.45 -74.69,-17.35 27.87,43.45 63.74,60.79 102.73,60.79 118.31,0 265.19,-159.72 303.19,-234.25 33.11,-64.94 63.33,-165.76 113.66,-165.76 18.38,0 39.44,13.45 64.3,46.99 29.25,39.47 -7.77,110.67 66.73,133.22 10.88,3.3 21.26,4.9 30.85,4.9 18.75,0 34.42,-6.12 44.65,-17.71 -7.29,96.38 72.05,167.4 161.21,190.93 5.34,1.41 12.33,2.05 20.44,2.05 40.45,0 108.5,-16.15 135.7,-34.62 41.82,-28.37 44.96,-70.24 15.68,-77.94 8.71,1.66 16.87,2.43 24.55,2.43 109.93,0 113.89,-160.1 19.57,-178.65 1.64,0.1 3.25,0.15 4.82,0.15 46.31,0 63.14,-43.21 56.88,-86.41 -6.16,-42.53 -34.68,-85.06 -79.47,-86.37 20.4,-33.59 4,-94.46 -17.14,-126.04 -41.16,-61.47 -115.84,-98.91 -184.86,-107.81 -18.36,-2.38 -37.39,-3.57 -56.76,-3.57 m 250.35,351.72 c 29.36,0 33.59,-31.8 21.13,-54.71 -11.76,-21.59 -42.79,-35.12 -62.96,-43.13 55.71,-35.52 -22.88,-84.6 -43.62,-103.21 0.96,-0.04 1.93,-0.06 2.89,-0.06 48.64,0 92.66,48.48 58.8,90.75 33.35,16.08 94.98,64.59 75.78,104.75 -4.97,10.39 -23.56,16.12 -26.38,22.16 -6.48,13.91 2.44,24.26 0.29,39.68 -3.34,24 -13.58,37.81 -34.27,49.01 28.97,17.35 32.17,74.22 16.06,101.38 -12.98,21.88 -42.55,31.78 -69.86,31.78 -10.95,0 -21.53,-1.59 -30.54,-4.64 2.81,44.35 -33.43,68.3 -69.29,68.3 -26.47,0 -52.72,-13.04 -62.93,-40.54 -5.82,-7.15 -9.81,-15.36 -11.07,-24.29 l 7.72,11.55 c 0.75,4.55 1.89,8.79 3.35,12.74 13.99,17.17 38.57,28.18 61.39,28.18 6.94,0 13.71,-1.01 19.97,-3.18 40.01,-13.86 41.81,-59.79 31.19,-95.12 15.24,10.98 30.37,15.7 44.19,15.7 49.84,0 82.58,-61.49 41.63,-112.68 0.47,0.03 0.93,0.04 1.39,0.04 38.89,0 40.7,-75.42 16.8,-95.23 2.97,0.52 5.76,0.77 8.34,0.77"
           style="fill:url(#linearGradient8930);fill-opacity:1;fill-rule:nonzero;stroke:none"
           id="path8932" />
      </g>
    </g>
    <g
       transform="matrix(0.03527778,0,0,-0.03527778,-50.801986,187.90708)"
       id="g8934">
      <g
         id="g8936"
         clip-path="url(#clipPath8940)">
        <path
           inkscape:connector-curvature="0"
           d="m 1833.96,2328.7 c 225.46,34.42 266.13,-306.84 372.95,-434.44 58.31,-69.68 113.35,-104.23 196.67,-128.87 59.33,-17.57 255.58,25.31 169.09,92.12 113.33,-22.12 121.97,140.08 -19.1,125.14 3.77,18.32 -7.12,45.58 -3.4,63.93 -43.24,12.46 -80.97,6.02 -98.71,-28.1 -86.69,82.72 -104.57,-88.12 -171.56,-71.42 -34.27,8.53 -108.53,135.42 -129.04,168.81 -47.61,77.51 -187.89,359.87 -316.9,224.04"
           style="fill:url(#linearGradient8948);fill-opacity:1;fill-rule:nonzero;stroke:none"
           id="path8950" />
      </g>
    </g>
    <g
       transform="matrix(0.03527778,0,0,-0.03527778,-50.801986,187.90708)"
       id="g8952">
      <g
         id="g8954"
         clip-path="url(#clipPath8958)">
        <path
           inkscape:connector-curvature="0"
           d="m 1856.42,2407.22 c 154.24,66.28 233.4,-71.16 311,-182.6 30.2,-43.36 81.31,-139.19 149.17,-120.52 82.11,22.61 38.02,149.41 -11.67,99.54 25.59,85.76 138.26,-23.98 56.23,-99.22 -61.49,-56.44 -160.98,-15.48 -204.69,30.8 -98.84,104.69 -104.28,283.68 -300.04,272"
           style="fill:url(#linearGradient8966);fill-opacity:1;fill-rule:nonzero;stroke:none"
           id="path8968" />
      </g>
    </g>
    <g
       transform="matrix(0.03527778,0,0,-0.03527778,-50.801986,187.90708)"
       id="g8970">
      <g
         id="g8972"
         clip-path="url(#clipPath8976)">
        <path
           inkscape:connector-curvature="0"
           d="m 2761.19,1835.3 c -0.96,0 -1.93,0.02 -2.89,0.06 20.74,18.61 99.33,67.69 43.62,103.21 20.17,8.01 51.2,21.54 62.96,43.13 12.46,22.91 8.23,54.71 -21.13,54.71 -2.58,0 -5.37,-0.25 -8.34,-0.77 23.9,19.81 22.09,95.23 -16.8,95.23 -0.46,0 -0.92,-0.01 -1.39,-0.04 40.95,51.19 8.21,112.68 -41.63,112.68 -13.82,0 -28.95,-4.72 -44.19,-15.7 10.62,35.33 8.82,81.26 -31.19,95.12 -6.26,2.17 -13.03,3.18 -19.97,3.18 -22.82,0 -47.4,-11.01 -61.39,-28.18 10.21,27.5 36.46,40.54 62.93,40.54 35.86,0 72.1,-23.95 69.29,-68.3 9.01,3.05 19.59,4.64 30.54,4.64 27.31,0 56.88,-9.9 69.86,-31.78 16.11,-27.16 12.91,-84.03 -16.06,-101.38 20.69,-11.2 30.93,-25.01 34.27,-49.01 2.15,-15.42 -6.77,-25.77 -0.29,-39.68 2.82,-6.04 21.41,-11.77 26.38,-22.16 19.2,-40.16 -42.43,-88.67 -75.78,-104.75 33.86,-42.27 -10.16,-90.75 -58.8,-90.75 m -153.41,438.34 c 1.26,8.93 5.25,17.14 11.07,24.29 -1.46,-3.95 -2.6,-8.19 -3.35,-12.74 l -7.72,-11.55"
           style="fill:url(#linearGradient8984);fill-opacity:1;fill-rule:nonzero;stroke:none"
           id="path8986" />
      </g>
    </g>
    <path
       inkscape:connector-curvature="0"
       d="m 24.7556,104.98066 c 0.09948,-1.06362 2.584802,-0.58278 3.399013,-0.23742 1.414992,0.60079 2.201334,0.91511 3.821289,0.91793 -1.132416,0.61772 -2.303639,1.43299 -3.959578,1.22167 -1.238602,-0.15804 -2.591152,-1.00824 -3.396897,-1.90218"
       style="fill:#eaa111;fill-opacity:1;fill-rule:nonzero;stroke:none;stroke-width:0.03527778"
       id="path8988" />
    <path
       inkscape:connector-curvature="0"
       d="m 21.287794,116.46887 c 0.462492,-0.59513 1.756128,0.63289 2.108906,1.14794 0.612775,0.89253 0.959908,1.37725 1.92158,1.99249 -0.906639,-0.0632 -1.91135,-0.0215 -2.814814,-0.77505 -0.675216,-0.56409 -1.156758,-1.58151 -1.296106,-2.41724"
       style="fill:#f7ac0c;fill-opacity:1;fill-rule:nonzero;stroke:none;stroke-width:0.03527778"
       id="path8990" />
    <path
       inkscape:connector-curvature="0"
       d="m 16.044811,104.7944 c 0.364066,-0.46708 1.379008,0.49671 1.655938,0.90029 0.480484,0.69991 0.752828,1.08091 1.507773,1.56386 -0.711906,-0.049 -1.500717,-0.0176 -2.209095,-0.60784 -0.530577,-0.44238 -0.907697,-1.24107 -1.017411,-1.89723"
       style="fill:#f7ac0c;fill-opacity:1;fill-rule:nonzero;stroke:none;stroke-width:0.03527778"
       id="path8992" />
    <path
       inkscape:connector-curvature="0"
       d="m 34.466866,120.67963 c 0.462492,-0.59337 1.756128,0.63394 2.108906,1.14829 0.613127,0.89217 0.959908,1.3783 1.92158,1.99214 -0.906639,-0.0617 -1.91135,-0.0208 -2.814814,-0.77435 -0.675216,-0.56339 -1.156405,-1.58186 -1.296105,-2.41688"
       style="fill:#f9ab29;fill-opacity:1;fill-rule:nonzero;stroke:none;stroke-width:0.03527778"
       id="path8994" />
  </g>
</svg>
