<?xml version="1.0" encoding="UTF-8" standalone="no"?> <!-- Created with Inkscape (http://www.inkscape.org/) --> <svg
   xmlns:osb="http://www.openswatchbook.org/uri/2009/osb"
   xmlns:dc="http://purl.org/dc/elements/1.1/"
   xmlns:cc="http://creativecommons.org/ns#"
   xmlns:rdf="http://www.w3.org/1999/02/22-rdf-syntax-ns#"
   xmlns:svg="http://www.w3.org/2000/svg"
   xmlns="http://www.w3.org/2000/svg"
   xmlns:xlink="http://www.w3.org/1999/xlink"
   xmlns:sodipodi="http://sodipodi.sourceforge.net/DTD/sodipodi-0.dtd"
   xmlns:inkscape="http://www.inkscape.org/namespaces/inkscape"
   width="1280"
   height="800"
   viewBox="0 0 1280 800"
   version="1.1"
   id="svg6099"
   style="fill:none;"
   inkscape:version="0.92.1 r15371"
   sodipodi:docname="master.svg">
  <defs
     id="defs6093">
    <linearGradient
       inkscape:collect="always"
       id="linearGradient12191">
      <stop
         style="stop-color:#000000;stop-opacity:1;"
         offset="0"
         id="stop12187" />
      <stop
         style="stop-color:#000000;stop-opacity:0;"
         offset="1"
         id="stop12189" />
    </linearGradient>
    <linearGradient
       inkscape:collect="always"
       id="linearGradient9258">
      <stop
         style="stop-color:#000000;stop-opacity:1;"
         offset="0"
         id="stop9254" />
      <stop
         style="stop-color:#000000;stop-opacity:0;"
         offset="1"
         id="stop9256" />
    </linearGradient>
    <linearGradient
       id="linearGradient9236"
       osb:paint="solid">
      <stop
         style="stop-color:#000000;stop-opacity:1;"
         offset="0"
         id="stop9234" />
    </linearGradient>
    <linearGradient
       id="linearGradient9183"
       osb:paint="solid">
      <stop
         style="stop-color:#000000;stop-opacity:1;"
         offset="0"
         id="stop9181" />
    </linearGradient>
    <linearGradient
       id="linearGradient8229"
       osb:paint="solid">
      <stop
         style="stop-color:#003838;stop-opacity:1;"
         offset="0"
         id="stop8227" />
    </linearGradient>
    <linearGradient
       id="linearGradient8117"
       osb:paint="solid">
      <stop
         style="stop-color:#000000;stop-opacity:1;"
         offset="0"
         id="stop8115" />
    </linearGradient>
    <linearGradient
       inkscape:collect="always"
       xlink:href="#linearGradient8229"
       id="linearGradient8239"
       x1="0"
       y1="485.33334"
       x2="180"
       y2="485.33334"
       gradientUnits="userSpaceOnUse" />
    <linearGradient
       inkscape:collect="always"
       xlink:href="#linearGradient9258"
       id="linearGradient9262"
       x1="-0.82158381"
       y1="160.33334"
       x2="180.82158"
       y2="160.33334"
       gradientUnits="userSpaceOnUse"
       gradientTransform="matrix(0.88888888,0,0,1.0666668,10,4.3111073)" />
    <linearGradient
       inkscape:collect="always"
       xlink:href="#linearGradient9258"
       id="linearGradient9384"
       gradientUnits="userSpaceOnUse"
       gradientTransform="matrix(0.88888888,0,0,1.0666668,10,4.3111073)"
       x1="-0.82158381"
       y1="160.33334"
       x2="180.82158"
       y2="160.33334" />
    <linearGradient
       inkscape:collect="always"
       xlink:href="#linearGradient9258"
       id="linearGradient9386"
       gradientUnits="userSpaceOnUse"
       gradientTransform="matrix(0.88888888,0,0,1.0666668,10,4.3111073)"
       x1="-0.82158381"
       y1="160.33334"
       x2="180.82158"
       y2="160.33334" />
    <linearGradient
       inkscape:collect="always"
       xlink:href="#linearGradient12191"
       id="linearGradient12193"
       x1="480"
       y1="585.33337"
       x2="480"
       y2="475.33334"
       gradientUnits="userSpaceOnUse"
       gradientTransform="matrix(0.69073766,0,0,1.0166644,-61.090922,184.58251)" />
  </defs>
  <sodipodi:namedview
     id="base"
     pagecolor="#ffffff"
     bordercolor="#666666"
     borderopacity="1.0"
     inkscape:pageopacity="0"
     inkscape:pageshadow="2"
     inkscape:zoom="0.7"
     inkscape:cx="813.00488"
     inkscape:cy="501.69075"
     inkscape:document-units="px"
     inkscape:current-layer="layer1"
     showgrid="true"
     units="px"
     borderlayer="false"
     viewbox-height="800"
     showborder="true"
     inkscape:showpageshadow="true"
     inkscape:window-width="1920"
     inkscape:window-height="1001"
     inkscape:window-x="-9"
     inkscape:window-y="-9"
     inkscape:window-maximized="1"
     inkscape:snap-global="true"
     showguides="false"
     objecttolerance="10000"
     guidetolerance="10000"
     inkscape:snap-bbox="true"
     inkscape:bbox-paths="true"
     inkscape:bbox-nodes="true"
     inkscape:snap-bbox-edge-midpoints="true"
     inkscape:snap-bbox-midpoints="true">
    <inkscape:grid
       type="xygrid"
       id="grid6646"
       dotted="false" />
  </sodipodi:namedview>
  <metadata
     id="metadata6096">
    <rdf:RDF>
      <cc:Work
         rdf:about="">
        <dc:format>image/svg+xml</dc:format>
        <dc:type
           rdf:resource="http://purl.org/dc/dcmitype/StillImage" />
        <dc:title></dc:title>
      </cc:Work>
    </rdf:RDF>
  </metadata>
  <g
     inkscape:label="Layer 1"
     inkscape:groupmode="layer"
     id="layer1"
     transform="translate(0,-85.333349)">
    <rect
       id="rect10287"
       width="1280"
       height="800"
       x="0"
       y="85.828476" />
    <rect
       style="fill:url(#linearGradient8239);fill-opacity:1;fill-rule:nonzero;stroke:none;stroke-width:1;stroke-miterlimit:4;stroke-dasharray:none;stroke-opacity:1"
       id="rect6650"
       width="180"
       height="800"
       x="0"
       y="85.333351" />
    <g
       id="floorplan.button_home"
       transform="translate(-2.4991579,0.49865125)"
       inkscape:label="floorplan.button_home">
      <rect
         ry="35.555561"
         y="95.333351"
         x="10"
         height="160"
         width="160"
         id="rect8249"
         style="opacity:1;fill:url(#linearGradient9386);fill-opacity:1;fill-rule:nonzero;stroke:#000000;stroke-width:1.5999999;stroke-miterlimit:4;stroke-dasharray:none;stroke-opacity:1" 
/>
      <text
         id="text8261-3"
         y="224.61906"
         x="58.092087"
         style="font-style:normal;font-weight:normal;font-size:21.33333397px;line-height:1.25;font-family:sans-serif;letter-spacing:0px;word-spacing:0px;fill:#ffffff;fill-opacity:1;stroke:none"
         xml:space="preserve"><tspan
           y="224.61906"
           x="58.092087"
           id="tspan8259-0"
           sodipodi:role="line">Home</tspan></text>
      <g
         transform="matrix(0.24125653,0,0,0.22378979,35.076235,103.75038)"
         id="home"
         style="fill:#ffffff;fill-opacity:1">
        <path
           inkscape:connector-curvature="0"
           d="m 400.336,268.281 c -2.736,2.921 -7.379,3.081 -10.299,0.346 L 240.668,129.156 c -2.92,-2.735 -7.727,-2.735 -10.656,0 L 84.389,264.907 c -2.938,2.749 -7.562,2.576 
-10.299,-0.357 L 59.17,248.547 c -2.734,-2.921 -2.57,-7.563 0.359,-10.294 l 170.5,-158.955 c 2.938,-2.735 7.736,-2.735 10.67,0.018 L 414.91,241.985 c 2.924,2.735 3.094,7.378 
0.344,10.312 z"
           id="path9410"
           style="fill:#ffffff;fill-opacity:1" />
        <path
           inkscape:connector-curvature="0"
           d="M 235.333,154.331 112.577,268.765 V 387.41 c 0,4.029 3.312,7.344 7.352,7.344 h 80.68 V 291.891 c 0,-4.03 3.311,-7.344 7.354,-7.344 h 58.771 c 4.047,0 7.344,3.313 
7.344,7.344 v 102.862 h 80.943 c 4.047,0 7.344,-3.314 7.344,-7.344 V 272.954 Z"
           id="path9412"
           style="fill:#ffffff;fill-opacity:1" />
        <path
           inkscape:connector-curvature="0"
           d="m 361.881,94.593 c 0,-4.043 -3.314,-7.356 -7.361,-7.356 h -44.076 c -4.031,0 -7.344,3.313 -7.344,7.356 v 12.831 l 58.781,55.342 z"
           id="path9414"
           style="fill:#ffffff;fill-opacity:1" />
      </g>
    </g>
    <g
       transform="translate(-5.31652e-6,170)"
       id="floorplan.button_squeezebox"
       inkscape:label="floorplan.button_squeezebox">
      <rect
         ry="35.555561"
         y="95.333351"
         x="10"
         height="160"
         width="160"
         id="rect8249-0"
         style="opacity:1;fill:url(#linearGradient9384);fill-opacity:1;fill-rule:nonzero;stroke:#000000;stroke-width:1.5999999;stroke-miterlimit:4;stroke-dasharray:none;stroke-opacity:1" 
/>
      <g
         style="fill:#ffffff;fill-opacity:1"
         id="_225673400-8"
         transform="matrix(0.52095214,0,0,0.53044284,25.231715,125.1997)">
        <path
           inkscape:connector-curvature="0"
           style="fill:#ffffff;fill-opacity:1;fill-rule:nonzero"
           d="m 163.239,27.8153 c 11.5513,-6.09257 20.0152,-14.27 18.9071,-18.2658 -1.1051,-3.99689 -6.07337,-5.61381 -11.0918,-3.60466 -5.01422,2.0027 -13.4739,10.1834 
-18.9027,18.2584 -5.42565,8.08334 -0.45957,9.70025 11.0875,3.61207 z"
           id="_228839536-3" />
        <path
           inkscape:connector-curvature="0"
           style="fill:#ffffff;fill-opacity:1;fill-rule:nonzero"
           d="m 177.961,72.7125 c 6.44297,2.89605 15.1067,2.98587 21.289,0.422126 6.61728,-2.51465 9.19598,-5.9749 4.91698,-7.82592 -4.79945,-1.90752 -19.2693,-2.65783 
-29.644,-1.36471 -7.93591,1.56453 -4.71278,5.68114 3.43803,8.7685 z"
           id="_226149768-6" />
        <path
           inkscape:connector-curvature="0"
           style="fill:#ffffff;fill-opacity:1;fill-rule:nonzero"
           d="m 162.718,113.365 c 7.23497,8.88603 18.33,17.3243 23.9929,17.9121 4.33563,-0.71273 2.0208,-7.88366 -3.51387,-14.3864 -4.98418,-5.92265 -13.3754,-11.2276 
-19.6112,-12.9385 -6.37577,-2.08183 -7.42725,1.32617 -0.86784,9.4128 z"
           id="_226699800-5" />
        <path
           inkscape:connector-curvature="0"
           style="fill:#ffffff;fill-opacity:1;fill-rule:nonzero"
           d="m 130.312,86.3679 c -2.76041,-0.101486 -6.21106,-2.55305 -6.66953,-1.50789 -0.96617,2.20155 3.51374,8.67977 9.6779,6.63538 1.42341,-0.47232 3.6816,-1.90011 
4.33125,-2.47282 5.70569,-5.02491 -2.97833,-2.08498 -7.33961,-2.65467 z m 7.04901,-28.6789 c -5.39685,0.836846 -15.4701,8.96613 -12.0599,15.2991 0.23287,0.432823 1.53778,2.23255 
4.35045,3.04581 6.55954,1.89682 14.1622,0.916937 17.256,-5.17248 0.55035,-1.08466 1.34647,-2.6363 1.04832,-4.40283 -0.74811,-4.42217 -5.81143,-9.38729 -10.5948,-8.7696 z m 
-13.2665,-1.85513 c -7.79273,1.11237 -11.6496,7.12155 -8.26409,16.0611 0.21806,0.577097 1.00347,0.424183 1.19163,-0.290743 0.81216,-3.08626 1.37746,-5.6747 3.21243,-8.42962 
2.28055,-3.42309 5.87657,-4.32919 8.07909,-7.0608 0.82395,-1.02158 -2.76357,-0.487269 -4.21906,-0.279909 z m -6.0059,-8.30907 c 2.56375,-0.799269 3.96466,-1.21509 6.96768,-1.71086 
6.12672,-1.01102 21.0839,0.94368 25.5307,3.21134 6.99237,3.56407 13.725,8.77056 12.3014,17.5498 -1.39351,8.59529 -7.67191,13.3243 -13.1126,18.3673 -5.32197,4.93522 -10.817,9.41499 
-19.2532,11.5973 -3.65691,0.945737 -11.7821,-0.637029 -14.0883,-4.26405 -0.86784,-1.36361 -1.68645,-2.98162 -2.42482,-4.31314 -1.54423,-2.79031 -1.30807,-3.06816 -4.2672,-4.74597 
-3.37495,-1.91506 -6.90789,-4.17531 -8.91278,-7.78217 -1.28983,-2.32224 -3.27977,-9.64471 -1.93755,-12.8625 2.66318,-6.38757 12.5399,-12.9833 19.1967,-15.047 z"
           id="_138371256-7" />
        <path
           inkscape:connector-curvature="0"
           style="fill:#ffffff;fill-opacity:1;fill-rule:nonzero"
           d="M 61.9753,21.2408 C 49.0145,34.0361 36.2299,55.3293 40.075,80.2081 c 2.20581,14.8759 10.0168,25.8052 16.7055,33.9529 8.7685,10.1674 22.7254,19.5023 35.0119,17.3456 
5.66619,-1.11991 10.0434,-5.75685 12.106,-9.56037 7.92425,-14.6355 -8.2523,-34.097 -10.0808,-40.679 -3.61207,-9.38715 -3.14085,-14.3491 -2.37888,-23.5483 1.20974,-14.5628 
11.25,-30.7403 13.7678,-34.8569 2.73367,-4.47127 5.32306,-8.12832 7.34811,-11.5182 0.49371,-0.832457 1.75269,-2.74423 1.24718,-4.74267 -0.64759,-2.5104 -4.05243,-3.80023 
-6.92928,-4.17326 -1.14775,-0.145234 -2.24201,-0.21696 -3.29472,-0.229714 h -0.21161 -0.41568 c -3.172941,0.032091 -5.928961,0.570651 -8.405071,1.104 -9.0827,1.95346 
-16.1894,5.41385 -21.1352,8.65303 -3.60041,2.35954 -7.56302,5.45445 -11.4348,9.28567 z"
           id="_226702736-3" />
      </g>
      <text
         id="text8261-3-4"
         y="224.61906"
         x="27.142849"
         style="font-style:normal;font-weight:normal;font-size:21.33333397px;line-height:1.25;font-family:sans-serif;letter-spacing:0px;word-spacing:0px;fill:#ffffff;fill-opacity:1;stroke:none"
         xml:space="preserve"><tspan
           y="224.61906"
           x="27.142849"
           id="tspan8259-0-0"
           sodipodi:role="line">Squeezebox</tspan></text>
    </g>
    <rect
       id="content"
       width="1100"
       height="800"
       x="180"
       y="85.333351"
       inkscape:label="content" />
  </g> </svg>
