<?xml version="1.0" encoding="UTF-8" standalone="no"?>
<!-- Created with Inkscape (http://www.inkscape.org/) -->

<svg
   xmlns:dc="http://purl.org/dc/elements/1.1/"
   xmlns:cc="http://creativecommons.org/ns#"
   xmlns:rdf="http://www.w3.org/1999/02/22-rdf-syntax-ns#"
   xmlns:svg="http://www.w3.org/2000/svg"
   xmlns="http://www.w3.org/2000/svg"
   xmlns:sodipodi="http://sodipodi.sourceforge.net/DTD/sodipodi-0.dtd"
   xmlns:inkscape="http://www.inkscape.org/namespaces/inkscape"
   width="44.281002mm"
   height="27.590511mm"
   viewBox="0 0 44.281002 27.590511"
   version="1.1"
   id="svg11810"
   inkscape:version="0.92.4 (5da689c313, 2019-01-14)"
   sodipodi:docname="rainy.svg">
  <defs
     id="defs11804">
    <clipPath
       id="clipPath662"
       clipPathUnits="userSpaceOnUse">
      <path
         inkscape:connector-curvature="0"
         id="path660"
         d="m 4735.52,3343.89 c -0.02,14.17 -2.05,27.08 -2.26,35.98 -0.15,8.95 0.57,29.99 0.57,29.99 0,0 -12.29,-14.86 -18.01,-21.17 -5.76,-6.29 -16.67,-14.35 -26.13,-24.92 -6.87,-7.68 -9.89,-21.92 -6.91,-32.35 2.67,-9.29 7.34,-16.48 16.24,-20.82 3.71,-1.8 7.69,-2.68 11.53,-2.68 5.11,0 10.03,1.59 13.89,4.73 6.66,5.41 11.11,12.42 11.08,31.24 z" />
    </clipPath>
    <radialGradient
       id="radialGradient670"
       spreadMethod="pad"
       gradientTransform="matrix(57.2697,0,0,-64.918,4700.23,3363.24)"
       gradientUnits="userSpaceOnUse"
       r="1"
       cy="0"
       cx="0"
       fy="0.068913899"
       fx="-0.0076571">
      <stop
         id="stop664"
         offset="0"
         style="stop-opacity:1;stop-color:#f0fafb" />
      <stop
         id="stop666"
         offset="0.468293"
         style="stop-opacity:1;stop-color:#66cdf0" />
      <stop
         id="stop668"
         offset="1"
         style="stop-opacity:1;stop-color:#4b74c2" />
    </radialGradient>
    <clipPath
       id="clipPath644"
       clipPathUnits="userSpaceOnUse">
      <path
         inkscape:connector-curvature="0"
         id="path642"
         d="m 4243.74,3156.63 c 0,12.2 -1.77,23.3 -1.94,30.96 -0.14,7.7 0.49,25.8 0.49,25.8 0,0 -10.56,-12.78 -15.47,-18.2 -4.97,-5.42 -14.39,-12.36 -22.53,-21.45 -5.89,-6.61 -8.48,-18.87 -5.92,-27.85 2.28,-7.99 6.3,-14.18 13.97,-17.9 3.19,-1.55 6.6,-2.31 9.92,-2.31 4.39,0 8.64,1.37 11.95,4.06 5.73,4.65 9.57,10.69 9.53,26.89 z" />
    </clipPath>
    <radialGradient
       id="radialGradient652"
       spreadMethod="pad"
       gradientTransform="matrix(49.2778,0,0,-55.8589,4213.38,3173.28)"
       gradientUnits="userSpaceOnUse"
       r="1"
       cy="0"
       cx="0"
       fy="0.068913899"
       fx="-0.0076571">
      <stop
         id="stop646"
         offset="0"
         style="stop-opacity:1;stop-color:#f0fafb" />
      <stop
         id="stop648"
         offset="0.468293"
         style="stop-opacity:1;stop-color:#66cdf0" />
      <stop
         id="stop650"
         offset="1"
         style="stop-opacity:1;stop-color:#4b74c2" />
    </radialGradient>
    <clipPath
       id="clipPath626"
       clipPathUnits="userSpaceOnUse">
      <path
         inkscape:connector-curvature="0"
         id="path624"
         d="m 4506.15,3033.6 c -0.02,17.73 -2.57,33.89 -2.81,45.04 -0.21,11.19 0.69,37.53 0.69,37.53 0,0 -15.36,-18.6 -22.52,-26.49 -7.22,-7.88 -20.88,-17.97 -32.74,-31.19 -8.57,-9.62 -12.34,-27.44 -8.61,-40.51 3.31,-11.62 9.18,-20.62 20.32,-26.04 4.65,-2.25 9.6,-3.36 14.4,-3.36 6.41,0 12.57,1.98 17.42,5.91 8.33,6.77 13.9,15.55 13.85,39.11 z" />
    </clipPath>
    <radialGradient
       id="radialGradient634"
       spreadMethod="pad"
       gradientTransform="matrix(71.6754,0,0,-81.2476,4462,3057.81)"
       gradientUnits="userSpaceOnUse"
       r="1"
       cy="0"
       cx="0"
       fy="0.068913899"
       fx="-0.0076571">
      <stop
         id="stop628"
         offset="0"
         style="stop-opacity:1;stop-color:#f0fafb" />
      <stop
         id="stop630"
         offset="0.468293"
         style="stop-opacity:1;stop-color:#66cdf0" />
      <stop
         id="stop632"
         offset="1"
         style="stop-opacity:1;stop-color:#4b74c2" />
    </radialGradient>
    <clipPath
       id="clipPath608"
       clipPathUnits="userSpaceOnUse">
      <path
         inkscape:connector-curvature="0"
         id="path606"
         d="m 4667.91,3230.01 c -0.02,17.74 -2.57,33.9 -2.82,45.05 -0.21,11.18 0.7,37.52 0.7,37.52 0,0 -15.36,-18.59 -22.52,-26.49 -7.23,-7.87 -20.91,-17.97 -32.75,-31.19 -8.57,-9.61 -12.34,-27.43 -8.61,-40.5 3.31,-11.63 9.18,-20.63 20.33,-26.05 4.64,-2.25 9.6,-3.36 14.4,-3.36 6.41,0 12.57,1.99 17.41,5.92 8.33,6.77 13.9,15.54 13.86,39.1 z" />
    </clipPath>
    <radialGradient
       id="radialGradient616"
       spreadMethod="pad"
       gradientTransform="matrix(71.6754,0,0,-81.2476,4623.76,3254.23)"
       gradientUnits="userSpaceOnUse"
       r="1"
       cy="0"
       cx="0"
       fy="0.068913899"
       fx="-0.0076571">
      <stop
         id="stop610"
         offset="0"
         style="stop-opacity:1;stop-color:#f0fafb" />
      <stop
         id="stop612"
         offset="0.468293"
         style="stop-opacity:1;stop-color:#66cdf0" />
      <stop
         id="stop614"
         offset="1"
         style="stop-opacity:1;stop-color:#4b74c2" />
    </radialGradient>
    <clipPath
       id="clipPath590"
       clipPathUnits="userSpaceOnUse">
      <path
         inkscape:connector-curvature="0"
         id="path588"
         d="m 4410.9,3147.96 c -0.02,17.74 -2.59,33.89 -2.84,45.05 -0.18,11.19 0.73,37.52 0.73,37.52 0,0 -15.37,-18.59 -22.55,-26.49 -7.2,-7.87 -20.87,-17.96 -32.71,-31.19 -8.58,-9.61 -12.38,-27.44 -8.63,-40.5 3.31,-11.62 9.18,-20.63 20.32,-26.05 4.63,-2.25 9.6,-3.36 14.41,-3.36 6.41,0 12.57,1.99 17.42,5.91 8.3,6.78 13.88,15.55 13.85,39.11 z" />
    </clipPath>
    <radialGradient
       id="radialGradient598"
       spreadMethod="pad"
       gradientTransform="matrix(71.6802,0,0,-81.2531,4366.74,3172.18)"
       gradientUnits="userSpaceOnUse"
       r="1"
       cy="0"
       cx="0"
       fy="0.068913899"
       fx="-0.0076571">
      <stop
         id="stop592"
         offset="0"
         style="stop-opacity:1;stop-color:#f0fafb" />
      <stop
         id="stop594"
         offset="0.468293"
         style="stop-opacity:1;stop-color:#66cdf0" />
      <stop
         id="stop596"
         offset="1"
         style="stop-opacity:1;stop-color:#4b74c2" />
    </radialGradient>
    <clipPath
       id="clipPath572"
       clipPathUnits="userSpaceOnUse">
      <path
         inkscape:connector-curvature="0"
         id="path570"
         d="m 4149.83,3024.59 c -0.31,22.21 -3.78,42.28 -4.26,56.23 -0.47,13.96 0.23,46.89 0.23,46.89 0,0 -18.87,-23.47 -27.71,-33.46 -8.85,-9.99 -25.76,-22.83 -40.31,-39.55 -10.53,-12.15 -14.98,-34.5 -10.11,-50.72 4.38,-14.45 11.86,-25.65 25.87,-32.21 5.82,-2.71 12.05,-4.01 18.05,-3.93 8.01,0.11 15.67,2.71 21.66,7.69 10.29,8.56 17.08,19.64 16.58,49.06 z" />
    </clipPath>
    <radialGradient
       id="radialGradient580"
       spreadMethod="pad"
       gradientTransform="matrix(89.5275,1.23608,1.40116,-101.484,4094.29,3054.1)"
       gradientUnits="userSpaceOnUse"
       r="1"
       cy="0"
       cx="0"
       fy="0.068913899"
       fx="-0.0076571">
      <stop
         id="stop574"
         offset="0"
         style="stop-opacity:1;stop-color:#f0fafb" />
      <stop
         id="stop576"
         offset="0.468293"
         style="stop-opacity:1;stop-color:#66cdf0" />
      <stop
         id="stop578"
         offset="1"
         style="stop-opacity:1;stop-color:#4b74c2" />
    </radialGradient>
    <clipPath
       id="clipPath554"
       clipPathUnits="userSpaceOnUse">
      <path
         inkscape:connector-curvature="0"
         id="path552"
         d="m 3810.2,3137.54 c -0.05,17.78 -2.93,33.91 -3.21,45.09 -0.24,11.16 0.79,37.52 0.79,37.52 0,0 -17.4,-18.59 -25.54,-26.49 -8.15,-7.9 -23.66,-18.01 -37.08,-31.23 -9.75,-9.57 -14.02,-27.42 -9.8,-40.46 3.77,-11.62 10.43,-20.65 23.07,-26.07 5.25,-2.23 10.87,-3.36 16.31,-3.36 7.27,0 14.26,1.99 19.72,5.91 9.46,6.77 15.77,15.55 15.74,39.09 z" />
    </clipPath>
    <radialGradient
       id="radialGradient562"
       spreadMethod="pad"
       gradientTransform="matrix(81.2659,0,0,-81.2659,3760.14,3161.78)"
       gradientUnits="userSpaceOnUse"
       r="1"
       cy="0"
       cx="0"
       fy="0.068913899"
       fx="-0.0076571">
      <stop
         id="stop556"
         offset="0"
         style="stop-opacity:1;stop-color:#f0fafb" />
      <stop
         id="stop558"
         offset="0.468293"
         style="stop-opacity:1;stop-color:#66cdf0" />
      <stop
         id="stop560"
         offset="1"
         style="stop-opacity:1;stop-color:#4b74c2" />
    </radialGradient>
    <clipPath
       id="clipPath536"
       clipPathUnits="userSpaceOnUse">
      <path
         inkscape:connector-curvature="0"
         id="path534"
         d="m 3989.91,3090.87 c -0.02,22.19 -3.65,42.36 -3.97,56.3 -0.33,13.95 0.96,46.87 0.96,46.87 0,0 -21.72,-23.22 -31.92,-33.1 -10.16,-9.84 -29.54,-22.43 -46.31,-38.97 -12.14,-11.99 -17.51,-34.26 -12.21,-50.55 4.69,-14.54 13,-25.82 28.78,-32.56 6.59,-2.83 13.58,-4.2 20.39,-4.2 9.08,0 17.82,2.48 24.67,7.38 11.8,8.44 19.68,19.4 19.61,48.83 z" />
    </clipPath>
    <radialGradient
       id="radialGradient544"
       spreadMethod="pad"
       gradientTransform="matrix(101.499,0,0,-101.499,3927.39,3121.14)"
       gradientUnits="userSpaceOnUse"
       r="1"
       cy="0"
       cx="0"
       fy="0.068913899"
       fx="-0.0076571">
      <stop
         id="stop538"
         offset="0"
         style="stop-opacity:1;stop-color:#f0fafb" />
      <stop
         id="stop540"
         offset="0.468293"
         style="stop-opacity:1;stop-color:#66cdf0" />
      <stop
         id="stop542"
         offset="1"
         style="stop-opacity:1;stop-color:#4b74c2" />
    </radialGradient>
    <clipPath
       id="clipPath516"
       clipPathUnits="userSpaceOnUse">
      <path
         inkscape:connector-curvature="0"
         id="path514"
         d="m 4437.17,3413.28 c 2.1,4.21 3.5,8.73 4.23,13.42 5.38,37.11 -36.61,73.81 -93.68,82.09 -2.39,0.36 -4.71,0.57 -7.1,0.79 1.34,29.86 -21.63,65.92 -60.19,89.63 -31.89,19.59 -66.37,25.69 -92.14,19 -27.42,22.06 -69.01,32.82 -113.19,25.89 -71.56,-11.28 -122.53,-64.68 -113.94,-119.3 l 0.36,-1.56 c -7.11,2.78 -14.78,4.4 -22.9,4.4 -34.01,0 -61.54,-26.89 -61.54,-60.09 l 0.02,-0.35 c -51.18,-4.79 -91.09,-45.29 -91.09,-94.51 0,-52.52 45.35,-95.06 101.33,-95.06 20.25,0 39.08,5.62 54.9,15.21 8,-17.48 24.21,-30.93 44.64,-34.57 22.93,-4.07 44.91,5.37 58.3,22.37 23.6,-32.86 69.93,-51.26 119.42,-43.49 44.54,7.01 80.08,33.45 95.74,66.7 8.95,-12.2 22.35,-21.16 38.43,-24.03 21.08,-3.73 41.44,3.83 55.02,18.27 14.24,-7.76 31.16,-13.5 49.69,-16.22 57.13,-8.25 107.77,15.06 113.13,52.12 4.93,33.9 -29.79,67.45 -79.44,79.29 z" />
    </clipPath>
    <radialGradient
       id="radialGradient524"
       spreadMethod="pad"
       gradientTransform="matrix(799.209,0,0,-799.209,4164.49,3776.24)"
       gradientUnits="userSpaceOnUse"
       r="1"
       cy="0"
       cx="0"
       fy="0"
       fx="0">
      <stop
         id="stop518"
         offset="0"
         style="stop-opacity:1;stop-color:#f7f7fb" />
      <stop
         id="stop520"
         offset="0.546341"
         style="stop-opacity:1;stop-color:#cae6f4" />
      <stop
         id="stop522"
         offset="1"
         style="stop-opacity:1;stop-color:#4e7e9f" />
    </radialGradient>
    <clipPath
       id="clipPath494"
       clipPathUnits="userSpaceOnUse">
      <path
         inkscape:connector-curvature="0"
         id="path492"
         d="m 4783.72,3509.77 c 2.12,4.26 3.54,8.82 4.24,13.56 5.47,37.46 -36.9,74.53 -94.55,82.9 -2.45,0.37 -4.83,0.56 -7.22,0.8 1.35,30.18 -21.84,66.6 -60.75,90.52 -32.2,19.79 -67.04,25.95 -93.04,19.17 -27.76,22.3 -69.72,33.18 -114.36,26.16 -72.22,-11.37 -123.75,-65.31 -115.02,-120.49 l 0.33,-1.57 c -7.17,2.82 -14.93,4.44 -23.13,4.44 -34.32,0 -62.19,-27.15 -62.19,-60.68 l 0.02,-0.36 c -51.62,-4.84 -91.98,-45.73 -91.98,-95.46 0,-53.01 45.81,-95.98 102.37,-95.98 20.45,0 39.44,5.69 55.42,15.35 8.12,-17.65 24.49,-31.2 45.1,-34.9 23.18,-4.1 45.34,5.41 58.88,22.59 23.83,-33.19 70.64,-51.77 120.6,-43.91 44.99,7.06 80.86,33.75 96.72,67.37 9.02,-12.35 22.55,-21.39 38.8,-24.28 21.28,-3.78 41.83,3.85 55.55,18.43 14.39,-7.83 31.51,-13.62 50.23,-16.35 57.6,-8.35 108.77,15.19 114.18,52.61 4.99,34.25 -30.07,68.1 -80.2,80.08 z" />
    </clipPath>
    <radialGradient
       id="radialGradient502"
       spreadMethod="pad"
       gradientTransform="matrix(807.131,0,0,-807.131,4508.31,3876.35)"
       gradientUnits="userSpaceOnUse"
       r="1"
       cy="0"
       cx="0"
       fy="0"
       fx="0">
      <stop
         id="stop496"
         offset="0"
         style="stop-opacity:1;stop-color:#f7f7fb" />
      <stop
         id="stop498"
         offset="0.546341"
         style="stop-opacity:1;stop-color:#cae6f4" />
      <stop
         id="stop500"
         offset="1"
         style="stop-opacity:1;stop-color:#4e7e9f" />
    </radialGradient>
    <clipPath
       id="clipPath472"
       clipPathUnits="userSpaceOnUse">
      <path
         inkscape:connector-curvature="0"
         id="path470"
         d="m 4042.42,3549.39 c 1.38,2.75 2.28,5.7 2.74,8.76 3.53,24.22 -23.83,48.18 -61.12,53.59 -1.58,0.24 -3.11,0.36 -4.66,0.52 0.87,19.5 -14.12,43.05 -39.27,58.52 -20.81,12.78 -43.33,16.76 -60.14,12.38 -17.94,14.41 -45.07,21.45 -73.93,16.91 -46.68,-7.35 -79.99,-42.21 -74.35,-77.88 l 0.21,-1.01 c -4.63,1.81 -9.64,2.87 -14.96,2.87 -22.17,0 -40.18,-17.55 -40.18,-39.23 l 0.02,-0.23 c -33.37,-3.14 -59.47,-29.56 -59.47,-61.7 0,-34.27 29.62,-62.05 66.18,-62.05 13.22,0 25.49,3.68 35.83,9.92 5.24,-11.41 15.83,-20.17 29.16,-22.56 14.96,-2.65 29.28,3.5 38.04,14.61 15.41,-21.46 45.65,-33.47 77.96,-28.39 29.07,4.57 52.27,21.82 62.51,43.55 5.83,-7.98 14.58,-13.83 25.1,-15.7 13.75,-2.45 27.03,2.49 35.91,11.92 9.29,-5.06 20.35,-8.8 32.46,-10.57 37.24,-5.4 70.3,9.82 73.8,34 3.22,22.15 -19.43,44.02 -51.84,51.77 z" />
    </clipPath>
    <radialGradient
       id="radialGradient480"
       spreadMethod="pad"
       gradientTransform="matrix(521.722,0,0,-521.722,3864.39,3786.34)"
       gradientUnits="userSpaceOnUse"
       r="1"
       cy="0"
       cx="0"
       fy="0"
       fx="0">
      <stop
         id="stop474"
         offset="0"
         style="stop-opacity:1;stop-color:#f7f7fb" />
      <stop
         id="stop476"
         offset="0.546341"
         style="stop-opacity:1;stop-color:#cae6f4" />
      <stop
         id="stop478"
         offset="1"
         style="stop-opacity:1;stop-color:#4e7e9f" />
    </radialGradient>
  </defs>
  <sodipodi:namedview
     id="base"
     pagecolor="#ffffff"
     bordercolor="#666666"
     borderopacity="1.0"
     inkscape:pageopacity="0.0"
     inkscape:pageshadow="2"
     inkscape:zoom="0.35"
     inkscape:cx="860.82354"
     inkscape:cy="-482.14616"
     inkscape:document-units="mm"
     inkscape:current-layer="layer1"
     showgrid="false"
     inkscape:window-width="1920"
     inkscape:window-height="1005"
     inkscape:window-x="-9"
     inkscape:window-y="-9"
     inkscape:window-maximized="1" />
  <metadata
     id="metadata11807">
    <rdf:RDF>
      <cc:Work
         rdf:about="">
        <dc:format>image/svg+xml</dc:format>
        <dc:type
           rdf:resource="http://purl.org/dc/dcmitype/StillImage" />
        <dc:title></dc:title>
      </cc:Work>
    </rdf:RDF>
  </metadata>
  <g
     inkscape:label="Layer 1"
     inkscape:groupmode="layer"
     id="layer1"
     transform="translate(255.7298,6.3250146)">
    <path
       inkscape:connector-curvature="0"
       d="m -247.41659,4.9592871 c -0.91123,0 -1.73497,-0.362302 -2.23662,-0.977194 -0.28539,0.301272 -0.67592,0.470958 -1.0922,0.470958 -0.0868,0 -0.17497,-0.0067 -0.26528,-0.02223 -0.44733,-0.080075 -0.83327,-0.358064 -1.05552,-0.752117 -0.37182,0.202847 -0.78951,0.307975 -1.21637,0.307975 -1.34973,0 -2.44722,-1.0329332 -2.44722,-2.3022276 0,-1.15499445 0.89641,-2.11772505 2.09903,-2.27718045 0.0497,-0.78210825 0.71613,-1.40405555 1.52752,-1.40405555 0.13229,0 0.26282,0.01764 0.39159,0.051153 -0.10055,-1.2661197 1.09184,-2.4726196 2.73544,-2.7312057 0.20884,-0.033161 0.4198,-0.050094 0.62865,-0.050094 0.7754,0 1.48978,0.2250722 2.02176,0.6353527 0.14817,-0.033161 0.30622,-0.050447 0.47273,-0.050447 0.54504,0 1.14194,0.1816806 1.68169,0.5136445 0.85196,0.523875 1.41711,1.3377334 1.44074,2.0588111 l 0.066,0.00847 c 0.65864,0.094897 1.25236,0.3520723 1.67605,0.72248865 0.43744,0.3834697 0.6417,0.8427863 0.57609,1.2950473 -0.0109,0.073731 -0.0286,0.1464027 -0.0547,0.2166057 1.15922,0.3185583 1.90394,1.11125005 1.78717,1.91911105 -0.11465,0.785636 -1.01424,1.3338523 -2.19005,1.3338523 -0.1785,0 -0.36159,-0.01341 -0.54222,-0.0388 -0.39228,-0.05715 -0.77328,-0.176742 -1.10913,-0.3460752 -0.2794,0.2656412 -0.65405,0.4162782 -1.04034,0.4162782 -0.0875,0 -0.17674,-0.0074 -0.266,-0.02328 -0.32561,-0.05785 -0.61912,-0.220133 -0.84349,-0.4617859 -0.42157,0.7475359 -1.25236,1.2939889 -2.20839,1.4449779 -0.1785,0.02787 -0.35912,0.04198 -0.53692,0.04198"
       style="fill:#cae5f4;fill-opacity:1;fill-rule:nonzero;stroke:none;stroke-width:0.03527778"
       id="path464" />
    <g
       transform="matrix(0.03527778,0,0,-0.03527778,-383.22862,125.96418)"
       id="g466">
      <g
         id="g468"
         clip-path="url(#clipPath472)">
        <path
           inkscape:connector-curvature="0"
           d="m 4042.42,3549.39 c 1.38,2.75 2.28,5.7 2.74,8.76 3.53,24.22 -23.83,48.18 -61.12,53.59 -1.58,0.24 -3.11,0.36 -4.66,0.52 0.87,19.5 -14.12,43.05 -39.27,58.52 -20.81,12.78 -43.33,16.76 -60.14,12.38 -17.94,14.41 -45.07,21.45 -73.93,16.91 -46.68,-7.35 -79.99,-42.21 -74.35,-77.88 l 0.21,-1.01 c -4.63,1.81 -9.64,2.87 -14.96,2.87 -22.17,0 -40.18,-17.55 -40.18,-39.23 l 0.02,-0.23 c -33.37,-3.14 -59.47,-29.56 -59.47,-61.7 0,-34.27 29.62,-62.05 66.18,-62.05 13.22,0 25.49,3.68 35.83,9.92 5.24,-11.41 15.83,-20.17 29.16,-22.56 14.96,-2.65 29.28,3.5 38.04,14.61 15.41,-21.46 45.65,-33.47 77.96,-28.39 29.07,4.57 52.27,21.82 62.51,43.55 5.83,-7.98 14.58,-13.83 25.1,-15.7 13.75,-2.45 27.03,2.49 35.91,11.92 9.29,-5.06 20.35,-8.8 32.46,-10.57 37.24,-5.4 70.3,9.82 73.8,34 3.22,22.15 -19.43,44.02 -51.84,51.77"
           style="fill:url(#radialGradient480);fill-opacity:1;fill-rule:nonzero;stroke:none"
           id="path482" />
      </g>
    </g>
    <path
       inkscape:connector-curvature="0"
       d="m -249.37381,2.5466405 c -0.0716,-0.4600223 0.0646,-0.9140473 0.35031,-1.2996334 -0.50165,0.4243917 -0.77787,1.0244667 -0.68156,1.6386527 0.16086,1.0223503 1.28764,1.6940393 2.51777,1.5003643 0.40711,-0.06385 0.77223,-0.2159 1.07597,-0.425803 -0.16898,0.058914 -0.34642,0.105833 -0.53304,0.134761 -1.34056,0.211314 -2.56152,-0.4822473 -2.72945,-1.5483416 z m 8.6159,-1.60266945 c 0.92357,0.33161105 1.51976,0.90240545 1.42875,1.46543875 -0.11677,0.7475361 -1.40159,1.1959167 -2.86491,1.001889 l -0.002,-3.439e-4 c 0.22048,0.076553 0.46037,0.1337029 0.71437,0.1679223 1.24989,0.1654529 2.35938,-0.301625 2.4765,-1.0435167 0.10901,-0.682625 -0.65934,-1.357136 -1.75224,-1.59138045 z M -251.8556,-1.5995566 c 0.14464,0 0.28011,0.026107 0.41169,0.062442 -0.1979,-0.141817 -0.44132,-0.2278949 -0.7059,-0.2278949 -0.66323,0 -1.20121,0.5249333 -1.20121,1.17228055 0,0.062442 0.01,0.1217084 0.019,0.1816804 0.13476,-0.67733305 0.74224,-1.18850805 1.47637,-1.18850805 z m 8.10437,5.1449108 c -0.37042,-0.065617 -0.6791,-0.2705804 -0.88971,-0.5471583 0.17851,0.3429 0.50518,0.6050139 0.91616,0.6776862 0.5715,0.1016 1.11514,-0.1905 1.36808,-0.676275 -0.31539,0.4134554 -0.84314,0.6438194 -1.39453,0.5457471 z m -1.09079,-1.3236221 c -0.0219,-0.1446389 -0.0639,-0.282575 -0.1203,-0.4123973 l 0.0176,0.083608 c 0.17145,1.0914947 -0.7306,2.1413613 -2.01754,2.3435033 -1.28693,0.202847 -2.46768,-0.518584 -2.63842,-1.6107836 l -0.01,-0.09278 c -0.0152,0.1439334 -0.0127,0.2899834 0.0102,0.4377971 0.1711,1.0918465 1.37513,1.8093965 2.68994,1.6026695 1.31515,-0.207081 2.24049,-1.2597699 2.06798,-2.351617 z m -6.03391,1.696508 c -0.5902,-0.104775 -0.99907,-0.7824609 -0.98708,-1.3603109 -0.0303,0.075847 -0.0543,0.155575 -0.0702,0.2402417 -0.11465,0.6487583 0.32103,1.2685892 0.97367,1.3850052 0.65334,0.116417 1.27635,-0.316089 1.39135,-0.9648469 0.0113,-0.062442 0.0127,-0.1231194 0.0145,-0.1845027 -0.20779,0.5115277 -0.75318,0.9853086 -1.32221,0.8844136 z m -2.22497,-0.5425719 c 0.14675,0 0.28963,-0.01764 0.42721,-0.049742 -0.23142,0.092428 -0.48577,0.144286 -0.75318,0.144286 -1.05798,0 -1.91452,-0.8039804 -1.91452,-1.7956387 0,-0.99201105 0.85654,-1.79563905 1.91452,-1.79563905 0.10936,0 0.21696,0.010583 0.32173,0.027164 -1.00047,0.00212 -1.8108,0.777875 -1.8108,1.73460835 0,0.9584971 0.81209,1.7349611 1.81504,1.7349614 z m 10.55581,-4.5504804 c -0.23989,-0.034219 -0.47272,-0.038453 -0.6932,-0.017992 0.0755,0.006 0.15345,0.013758 0.23001,0.0254 1.26506,0.18379705 2.19463,0.99800835 2.07433,1.81927495 -0.01,0.068439 -0.0286,0.1340554 -0.0515,0.1975554 0.11677,-0.136172 0.19332,-0.2924527 0.21872,-0.464961 0.10337,-0.7041444 -0.69426,-1.40193895 -1.77835,-1.55927765 z m -1.77517,-2.1720527 c -0.99519,-0.6106584 -2.12267,-0.5845528 -2.52166,0.061736 -0.09,0.150636 -0.13335,0.322086 -0.13476,0.5037667 0.0187,-0.109714 0.0497,-0.214489 0.10866,-0.309386 0.375,-0.608189 1.43721,-0.6339418 2.37419,-0.058561 0.93698,0.576439 1.39559,1.5367 1.02059,2.1452416 -0.12559,0.20566935 -0.33444,0.33831395 -0.58667,0.40992765 0.35807,-0.052211 0.65616,-0.2074333 0.82162,-0.47766095 0.39758,-0.6452304 -0.0889,-1.6644054 -1.08197,-2.275064 z m -6.69043,1.7575387 c 0.0134,0.087489 0.0374,0.171803 0.0649,0.2536473 -0.127,-0.1908527 -0.21484,-0.401814 -0.25083,-0.631825 -0.17321,-1.0981973 0.85161,-2.1724055 2.29094,-2.3988888 1.32398,-0.2081389 1.87466,0.1291166 2.42888,0.8748888 -0.7105,-0.4409722 -1.1049,-0.6748638 -2.24261,-0.4967111 -1.43969,0.2271889 -2.4638,1.3006918 -2.29129,2.3988888"
       style="fill:#cae5f4;fill-opacity:1;fill-rule:nonzero;stroke:none;stroke-width:0.03527778"
       id="path484" />
    <path
       inkscape:connector-curvature="0"
       d="m -224.98204,8.6599261 c -1.4097,0 -2.685,-0.560916 -3.4604,-1.511653 -0.44203,0.46602 -1.04599,0.728487 -1.69016,0.728487 -0.1337,0 -0.27129,-0.01093 -0.41063,-0.03457 -0.6918,-0.123825 -1.28905,-0.553508 -1.63195,-1.163461 -0.57574,0.31362 -1.22308,0.47625 -1.88278,0.47625 -2.08703,0 -3.78566,-1.59773 -3.78566,-3.5609386 0,-1.787172 1.38713,-3.27695275 3.24803,-3.52283875 0.0769,-1.21038035 1.10772,-2.17205265 2.36361,-2.17205265 0.20426,0 0.40569,0.026811 0.6036,0.078669 -0.15416,-1.9589775 1.69087,-3.8251719 4.23263,-4.2255747 0.3242,-0.051153 0.64946,-0.077258 0.97296,-0.077258 1.1998,0 2.3054,0.3481916 3.12773,0.9831916 0.2286,-0.051858 0.47378,-0.078317 0.73201,-0.078317 0.84243,0 1.76566,0.2808112 2.60068,0.7948084 1.31727,0.8106833 2.19251,2.0693944 2.22885,3.184525 0.0353,0.00212 0.0691,0.00776 0.10195,0.013407 1.01883,0.1471083 1.93746,0.54433595 2.59398,1.11759995 0.67627,0.5930193 0.99236,1.3042193 0.89147,2.00377775 -0.018,0.1139473 -0.0452,0.2261306 -0.0854,0.3351389 1.79281,0.4928304 2.94534,1.7187331 2.76401,2.9686241 -0.17674,1.215672 -1.5688,2.063397 -3.38808,2.063397 -0.27552,0 -0.55915,-0.02046 -0.83855,-0.05997 -0.60713,-0.08855 -1.19697,-0.273403 -1.7145,-0.535164 -0.43251,0.410634 -1.01282,0.64382 -1.61043,0.64382 -0.13476,0 -0.2734,-0.01164 -0.41169,-0.03598 -0.50306,-0.08961 -0.95779,-0.34043 -1.30563,-0.714375 -0.65123,1.156406 -1.93605,2.002014 -3.41595,2.2352 -0.27622,0.04339 -0.55562,0.06526 -0.82973,0.06526"
       style="fill:#cae5f4;fill-opacity:1;fill-rule:nonzero;stroke:none;stroke-width:0.03527778"
       id="path486" />
    <g
       transform="matrix(0.03527778,0,0,-0.03527778,-383.22862,125.96418)"
       id="g488">
      <g
         id="g490"
         clip-path="url(#clipPath494)">
        <path
           inkscape:connector-curvature="0"
           d="m 4783.72,3509.77 c 2.12,4.26 3.54,8.82 4.24,13.56 5.47,37.46 -36.9,74.53 -94.55,82.9 -2.45,0.37 -4.83,0.56 -7.22,0.8 1.35,30.18 -21.84,66.6 -60.75,90.52 -32.2,19.79 -67.04,25.95 -93.04,19.17 -27.76,22.3 -69.72,33.18 -114.36,26.16 -72.22,-11.37 -123.75,-65.31 -115.02,-120.49 l 0.33,-1.57 c -7.17,2.82 -14.93,4.44 -23.13,4.44 -34.32,0 -62.19,-27.15 -62.19,-60.68 l 0.02,-0.36 c -51.62,-4.84 -91.98,-45.73 -91.98,-95.46 0,-53.01 45.81,-95.98 102.37,-95.98 20.45,0 39.44,5.69 55.42,15.35 8.12,-17.65 24.49,-31.2 45.1,-34.9 23.18,-4.1 45.34,5.41 58.88,22.59 23.83,-33.19 70.64,-51.77 120.6,-43.91 44.99,7.06 80.86,33.75 96.72,67.37 9.02,-12.35 22.55,-21.39 38.8,-24.28 21.28,-3.78 41.83,3.85 55.55,18.43 14.39,-7.83 31.51,-13.62 50.23,-16.35 57.6,-8.35 108.77,15.19 114.18,52.61 4.99,34.25 -30.07,68.1 -80.2,80.08"
           style="fill:url(#radialGradient502);fill-opacity:1;fill-rule:nonzero;stroke:none"
           id="path504" />
      </g>
    </g>
    <path
       inkscape:connector-curvature="0"
       d="m -228.01135,4.9271851 c -0.11042,-0.711553 0.10054,-1.4142863 0.54293,-2.0104809 -0.77682,0.6565196 -1.20403,1.5850309 -1.05481,2.5354139 0.24871,1.581503 1.99143,2.62008 3.89573,2.321278 0.62865,-0.09948 1.19415,-0.334434 1.66476,-0.659342 -0.26212,0.09137 -0.53623,0.163689 -0.82515,0.208492 -2.07363,0.327025 -3.96275,-0.745773 -4.22346,-2.395361 z m 13.32936,-2.4793223 c 1.42875,0.5132914 2.35232,1.3962943 2.21121,2.2673023 -0.18168,1.156406 -2.16817,1.85032 -4.4323,1.550106 l -0.003,-0.0011 c 0.34043,0.118534 0.71049,0.207081 1.10384,0.26035 1.93393,0.255411 3.64984,-0.466725 3.83152,-1.614663 0.1683,-1.055823 -1.0195,-2.0996926 -2.71107,-2.4619953 z m -17.16687,-3.9345307 c 0.22295,0 0.43285,0.040217 0.63676,0.095956 -0.30727,-0.2187223 -0.68333,-0.3517194 -1.09326,-0.3517194 -1.02588,0 -1.85773,0.81209435 -1.85773,1.81363035 0,0.095956 0.0141,0.1876777 0.0286,0.280811 0.2085,-1.0484553 1.14971,-1.83867765 2.28565,-1.83867765 z m 12.53737,7.959372 c -0.57398,-0.1016 -1.05164,-0.4191 -1.37831,-0.847019 0.27623,0.530577 0.78317,0.936625 1.41852,1.048808 0.88406,0.156633 1.72473,-0.29457 2.11737,-1.046692 -0.48965,0.639939 -1.30563,0.996245 -2.15758,0.844903 z m -1.68769,-2.047522 c -0.0346,-0.224014 -0.10019,-0.437445 -0.18768,-0.638175 0.008,0.04374 0.0208,0.08608 0.0286,0.129117 0.26423,1.688747 -1.13066,3.312583 -3.12173,3.625497 -1.99038,0.313619 -3.81706,-0.802217 -4.08199,-2.49167 -0.008,-0.04763 -0.01,-0.09596 -0.0145,-0.14358 -0.0236,0.222955 -0.0194,0.44838 0.0159,0.677333 0.26529,1.688747 2.12689,2.798939 4.16136,2.478969 2.03483,-0.320675 3.46499,-1.949097 3.20005,-3.637491 z m -9.33486,2.623961 c -0.91369,-0.161925 -1.54552,-1.210028 -1.52752,-2.104319 -0.0469,0.117122 -0.0843,0.240947 -0.10831,0.371475 -0.17744,1.004005 0.49601,1.963208 1.50531,2.143124 1.01141,0.179917 1.97449,-0.489302 2.1537,-1.492602 0.0166,-0.09701 0.0194,-0.190853 0.0212,-0.285397 -0.32067,0.79128 -1.16452,1.523999 -2.04434,1.367719 z m -3.44205,-0.838906 c 0.22719,0 0.44697,-0.02787 0.66075,-0.07726 -0.35912,0.142875 -0.75141,0.223308 -1.16557,0.223308 -1.63619,0 -2.96157,-1.243894 -2.96157,-2.7781246 0,-1.5342304 1.32538,-2.77777205 2.96157,-2.77777205 0.16933,0 0.33584,0.016581 0.49777,0.041981 -1.54799,0.00353 -2.80141,1.20297215 -2.80141,2.68358045 0,1.4827242 1.25659,2.6842852 2.80846,2.6842852 z m 16.33008,-7.03968005 c -0.37112,-0.053622 -0.73201,-0.059619 -1.07209,-0.028575 0.11677,0.00953 0.23672,0.021519 0.35454,0.039864 1.95686,0.283986 3.39549,1.5437554 3.20993,2.81410845 -0.0152,0.1058333 -0.0448,0.2070803 -0.0797,0.3058583 0.18098,-0.2109613 0.29916,-0.452614 0.33832,-0.7196667 0.16051,-1.08867235 -1.07386,-2.16852505 -2.75097,-2.41158905 z m -2.74672,-3.36056095 c -1.53988,-0.9450916 -3.28366,-0.9041694 -3.89996,0.095603 -0.14111,0.2328334 -0.20744,0.4981222 -0.21026,0.7789332 0.0293,-0.1693333 0.0783,-0.3312583 0.16898,-0.4780137 0.57997,-0.9412111 2.22356,-0.9807222 3.67313,-0.091017 1.44956,0.8918221 2.15794,2.3777221 1.57867,3.31928605 -0.19473,0.3175 -0.51787,0.5224637 -0.90769,0.6335887 0.55386,-0.080433 1.01423,-0.3210277 1.27176,-0.7383637 0.61525,-0.99871365 -0.13723,-2.57527735 -1.67463,-3.52001655 z m -10.3505,2.7188584 c 0.0212,0.1354666 0.0582,0.2659943 0.10019,0.3922889 -0.1958,-0.2949223 -0.33126,-0.6212416 -0.38841,-0.9775473 -0.2667,-1.698625 1.31833,-3.3602083 3.54471,-3.7112222 2.04858,-0.3217333 2.90018,0.2003778 3.75743,1.3536084 -1.09819,-0.6819195 -1.70956,-1.0442223 -3.46921,-0.7679972 -2.22638,0.3513666 -3.81141,2.0122444 -3.54471,3.7108694"
       style="fill:#cae5f4;fill-opacity:1;fill-rule:nonzero;stroke:none;stroke-width:0.03527778"
       id="path506" />
    <path
       inkscape:connector-curvature="0"
       d="m -237.10349,12.000026 c -1.39665,0 -2.65994,-0.555272 -3.42724,-1.496483 -0.43744,0.461433 -1.03575,0.72143 -1.67357,0.72143 -0.13371,0 -0.26988,-0.01093 -0.40534,-0.03598 -0.68616,-0.121003 -1.27777,-0.546806 -1.61714,-1.149703 -0.57044,0.309034 -1.21038,0.470959 -1.86513,0.470959 -2.06552,0 -3.74721,-1.5822089 -3.74721,-3.5270729 0,-1.769533 1.37195,-3.243791 3.21628,-3.4872076 0.0755,-1.1990917 1.09502,-2.151239 2.33785,-2.151239 0.20356,0 0.40429,0.026458 0.60114,0.077964 -0.15487,-1.93957235 1.67216,-3.7874221 4.18923,-4.1842971 0.32103,-0.050447 0.64523,-0.075847 0.96414,-0.075847 1.18675,0 2.28248,0.344664 3.09598,0.9726084 0.22613,-0.0508 0.4699,-0.077258 0.72461,-0.077258 0.83396,0 1.74978,0.2786944 2.57528,0.7874 1.30527,0.80256935 2.1724,2.04928595 2.20662,3.1534804 0.0349,0.00282 0.0692,0.00776 0.10301,0.013406 1.00754,0.1453444 1.91735,0.5390444 2.56611,1.1063111 0.67063,0.5870218 0.9846,1.2918718 0.8837,1.9843748 -0.0166,0.112889 -0.0437,0.224367 -0.0825,0.331611 1.77377,0.48895 2.9143,1.701447 2.73615,2.939697 -0.17533,1.203678 -1.55434,2.0425829 -3.35527,2.0425829 -0.2734,0 -0.55351,-0.02081 -0.83079,-0.05891 -0.60114,-0.08819 -1.18604,-0.270581 -1.69792,-0.5302249 -0.42827,0.4071049 -1.0033,0.6374689 -1.59385,0.6374689 -0.1337,0 -0.27129,-0.01199 -0.40852,-0.03493 -0.49812,-0.0889 -0.94862,-0.337608 -1.29187,-0.7080249 -0.64629,1.1447639 -1.91805,1.9822579 -3.38384,2.2129749 -0.27235,0.04374 -0.54893,0.06491 -0.81986,0.06491"
       style="fill:#cae5f4;fill-opacity:1;fill-rule:nonzero;stroke:none;stroke-width:0.03527778"
       id="path508" />
    <g
       transform="matrix(0.03527778,0,0,-0.03527778,-383.22862,125.96418)"
       id="g510">
      <g
         id="g512"
         clip-path="url(#clipPath516)">
        <path
           inkscape:connector-curvature="0"
           d="m 4437.17,3413.28 c 2.1,4.21 3.5,8.73 4.23,13.42 5.38,37.11 -36.61,73.81 -93.68,82.09 -2.39,0.36 -4.71,0.57 -7.1,0.79 1.34,29.86 -21.63,65.92 -60.19,89.63 -31.89,19.59 -66.37,25.69 -92.14,19 -27.42,22.06 -69.01,32.82 -113.19,25.89 -71.56,-11.28 -122.53,-64.68 -113.94,-119.3 l 0.36,-1.56 c -7.11,2.78 -14.78,4.4 -22.9,4.4 -34.01,0 -61.54,-26.89 -61.54,-60.09 l 0.02,-0.35 c -51.18,-4.79 -91.09,-45.29 -91.09,-94.51 0,-52.52 45.35,-95.06 101.33,-95.06 20.25,0 39.08,5.62 54.9,15.21 8,-17.48 24.21,-30.93 44.64,-34.57 22.93,-4.07 44.91,5.37 58.3,22.37 23.6,-32.86 69.93,-51.26 119.42,-43.49 44.54,7.01 80.08,33.45 95.74,66.7 8.95,-12.2 22.35,-21.16 38.43,-24.03 21.08,-3.73 41.44,3.83 55.02,18.27 14.24,-7.76 31.16,-13.5 49.69,-16.22 57.13,-8.25 107.77,15.06 113.13,52.12 4.93,33.9 -29.79,67.45 -79.44,79.29"
           style="fill:url(#radialGradient524);fill-opacity:1;fill-rule:nonzero;stroke:none"
           id="path526" />
      </g>
    </g>
    <path
       inkscape:connector-curvature="0"
       d="m -240.10245,8.3039731 c -0.11148,-0.704144 0.097,-1.400527 0.53516,-1.990372 -0.76764,0.649111 -1.19133,1.569156 -1.04352,2.51072 0.2473,1.5652749 1.97203,2.5936219 3.85728,2.2969359 0.62371,-0.09737 1.18215,-0.329848 1.64676,-0.651934 -0.25752,0.08996 -0.52987,0.161925 -0.81491,0.206728 -2.05317,0.323145 -3.92466,-0.7383639 -4.18077,-2.3720779 z m 13.19812,-2.454274 c 1.41464,0.507294 2.32798,1.382536 2.18934,2.243666 -0.18098,1.145822 -2.14807,1.832681 -4.39068,1.535289 l -0.002,-7.14e-4 c 0.33796,0.116769 0.7038,0.205316 1.09397,0.257527 1.91523,0.2529419 3.61421,-0.460727 3.79307,-1.598788 0.16721,-1.044928 -1.00824,-2.078567 -2.68323,-2.436989 z m -16.9993,-3.8964309 c 0.21978,0 0.42862,0.039864 0.63006,0.095603 -0.3041,-0.2173113 -0.67557,-0.3499556 -1.08197,-0.3499556 -1.01671,0 -1.83974,0.8050387 -1.83974,1.79705 0,0.09525 0.0134,0.1855605 0.0282,0.2769305 0.20673,-1.0368139 1.13912,-1.8196278 2.26343,-1.8196279 z m 12.4146,7.8814079 c -0.56833,-0.101247 -1.04211,-0.415219 -1.36525,-0.839611 0.27375,0.525639 0.77505,0.9271 1.40441,1.0385779 0.87665,0.15628 1.70921,-0.2906889 2.09761,-1.0361079 -0.48612,0.633941 -1.29328,0.987072 -2.13677,0.837141 z m -1.67252,-2.028472 c -0.0335,-0.221544 -0.0974,-0.432153 -0.18556,-0.630414 0.009,0.04269 0.0215,0.08396 0.0286,0.126295 0.26352,1.673225 -1.11901,3.2804799 -3.08998,3.5912769 -1.97132,0.310092 -3.78037,-0.794808 -4.0446,-2.4687389 -0.006,-0.04727 -0.008,-0.09384 -0.0116,-0.141111 -0.0233,0.221192 -0.0215,0.443795 0.0141,0.670278 0.26353,1.6721669 2.10714,2.7717749 4.12115,2.4546279 2.01401,-0.316795 3.43218,-1.9296949 3.16794,-3.6022139 z m -9.24243,2.5989139 c -0.90452,-0.160161 -1.52999,-1.1980329 -1.51271,-2.0835059 -0.0459,0.116064 -0.0836,0.238478 -0.10654,0.366889 -0.17568,0.994833 0.49107,1.9448639 1.49014,2.1223109 1.00153,0.178506 1.95403,-0.483305 2.13325,-1.4770799 0.0159,-0.0956 0.0187,-0.189795 0.0212,-0.283634 -0.31856,0.784578 -1.15359,1.5091839 -2.0253,1.3550199 z m -3.40853,-0.8304389 c 0.22577,0 0.44344,-0.02822 0.65369,-0.07691 -0.35313,0.14217 -0.74259,0.220486 -1.15358,0.220486 -1.6196,0 -2.93264,-1.230841 -2.93264,-2.749902 0,-1.519414 1.31304,-2.751314 2.93264,-2.751314 0.17004,0 0.33302,0.01658 0.49318,0.04269 -1.53246,0.0028 -2.77354,1.190978 -2.77354,2.657475 0,1.467908 1.24425,2.657475 2.78025,2.657475 z m 16.17027,-6.9705359 c -0.36795,-0.052917 -0.7239,-0.059267 -1.06186,-0.028575 0.11642,0.00917 0.23319,0.021873 0.35207,0.039864 1.93675,0.2811638 3.36268,1.5278799 3.17782,2.7865919 -0.0145,0.104069 -0.0441,0.204258 -0.0797,0.30233 0.18027,-0.208844 0.29845,-0.44838 0.33585,-0.712611 0.15769,-1.078442 -1.06363,-2.1473582 -2.72415,-2.3875998 z m -2.72097,-3.32810545 c -1.52365,-0.93591935 -3.25015,-0.89464435 -3.8601,0.094897 -0.14076,0.2307167 -0.20637,0.4931834 -0.20884,0.7711723 0.0303,-0.1675693 0.0765,-0.3280833 0.16757,-0.4727223 0.57361,-0.93309695 2.20062,-0.97225525 3.63714,-0.090311 1.43615,0.8833557 2.13748,2.35373335 1.56245,3.28612505 -0.19227,0.3150304 -0.51259,0.5182304 -0.89853,0.6282971 0.54928,-0.079728 1.00542,-0.3185584 1.25942,-0.7313084 0.60889,-0.9891887 -0.13441,-2.54987775 -1.65911,-3.48614975 z m -10.24714,2.69240005 c 0.0198,0.134761 0.0565,0.2628193 0.0995,0.3891137 -0.19508,-0.2928054 -0.32914,-0.6163027 -0.38452,-0.968022 -0.266,-1.68239745 1.30457,-3.3284584 3.50908,-3.675239 2.02847,-0.318911 2.87231,0.198614 3.72004,1.34020265 -1.08726,-0.67521635 -1.69157,-1.03363865 -3.43394,-0.75988305 -2.20451,0.347486 -3.77508,1.99178305 -3.51014,3.6738277"
       style="fill:#cae5f4;fill-opacity:1;fill-rule:nonzero;stroke:none;stroke-width:0.03527778"
       id="path528" />
    <g
       transform="matrix(0.03527778,0,0,-0.03527778,-383.22862,125.96418)"
       id="g530">
      <g
         id="g532"
         clip-path="url(#clipPath536)">
        <path
           inkscape:connector-curvature="0"
           d="m 3989.91,3090.87 c -0.02,22.19 -3.65,42.36 -3.97,56.3 -0.33,13.95 0.96,46.87 0.96,46.87 0,0 -21.72,-23.22 -31.92,-33.1 -10.16,-9.84 -29.54,-22.43 -46.31,-38.97 -12.14,-11.99 -17.51,-34.26 -12.21,-50.55 4.69,-14.54 13,-25.82 28.78,-32.56 6.59,-2.83 13.58,-4.2 20.39,-4.2 9.08,0 17.82,2.48 24.67,7.38 11.8,8.44 19.68,19.4 19.61,48.83"
           style="fill:url(#radialGradient544);fill-opacity:1;fill-rule:nonzero;stroke:none"
           id="path546" />
      </g>
    </g>
    <g
       transform="matrix(0.03527778,0,0,-0.03527778,-383.22862,125.96418)"
       id="g548">
      <g
         id="g550"
         clip-path="url(#clipPath554)">
        <path
           inkscape:connector-curvature="0"
           d="m 3810.2,3137.54 c -0.05,17.78 -2.93,33.91 -3.21,45.09 -0.24,11.16 0.79,37.52 0.79,37.52 0,0 -17.4,-18.59 -25.54,-26.49 -8.15,-7.9 -23.66,-18.01 -37.08,-31.23 -9.75,-9.57 -14.02,-27.42 -9.8,-40.46 3.77,-11.62 10.43,-20.65 23.07,-26.07 5.25,-2.23 10.87,-3.36 16.31,-3.36 7.27,0 14.26,1.99 19.72,5.91 9.46,6.77 15.77,15.55 15.74,39.09"
           style="fill:url(#radialGradient562);fill-opacity:1;fill-rule:nonzero;stroke:none"
           id="path564" />
      </g>
    </g>
    <g
       transform="matrix(0.03527778,0,0,-0.03527778,-383.22862,125.96418)"
       id="g566">
      <g
         id="g568"
         clip-path="url(#clipPath572)">
        <path
           inkscape:connector-curvature="0"
           d="m 4149.83,3024.59 c -0.31,22.21 -3.78,42.28 -4.26,56.23 -0.47,13.96 0.23,46.89 0.23,46.89 0,0 -18.87,-23.47 -27.71,-33.46 -8.85,-9.99 -25.76,-22.83 -40.31,-39.55 -10.53,-12.15 -14.98,-34.5 -10.11,-50.72 4.38,-14.45 11.86,-25.65 25.87,-32.21 5.82,-2.71 12.05,-4.01 18.05,-3.93 8.01,0.11 15.67,2.71 21.66,7.69 10.29,8.56 17.08,19.64 16.58,49.06"
           style="fill:url(#radialGradient580);fill-opacity:1;fill-rule:nonzero;stroke:none"
           id="path582" />
      </g>
    </g>
    <g
       transform="matrix(0.03527778,0,0,-0.03527778,-383.22862,125.96418)"
       id="g584">
      <g
         id="g586"
         clip-path="url(#clipPath590)">
        <path
           inkscape:connector-curvature="0"
           d="m 4410.9,3147.96 c -0.02,17.74 -2.59,33.89 -2.84,45.05 -0.18,11.19 0.73,37.52 0.73,37.52 0,0 -15.37,-18.59 -22.55,-26.49 -7.2,-7.87 -20.87,-17.96 -32.71,-31.19 -8.58,-9.61 -12.38,-27.44 -8.63,-40.5 3.31,-11.62 9.18,-20.63 20.32,-26.05 4.63,-2.25 9.6,-3.36 14.41,-3.36 6.41,0 12.57,1.99 17.42,5.91 8.3,6.78 13.88,15.55 13.85,39.11"
           style="fill:url(#radialGradient598);fill-opacity:1;fill-rule:nonzero;stroke:none"
           id="path600" />
      </g>
    </g>
    <g
       transform="matrix(0.03527778,0,0,-0.03527778,-383.22862,125.96418)"
       id="g602">
      <g
         id="g604"
         clip-path="url(#clipPath608)">
        <path
           inkscape:connector-curvature="0"
           d="m 4667.91,3230.01 c -0.02,17.74 -2.57,33.9 -2.82,45.05 -0.21,11.18 0.7,37.52 0.7,37.52 0,0 -15.36,-18.59 -22.52,-26.49 -7.23,-7.87 -20.91,-17.97 -32.75,-31.19 -8.57,-9.61 -12.34,-27.43 -8.61,-40.5 3.31,-11.63 9.18,-20.63 20.33,-26.05 4.64,-2.25 9.6,-3.36 14.4,-3.36 6.41,0 12.57,1.99 17.41,5.92 8.33,6.77 13.9,15.54 13.86,39.1"
           style="fill:url(#radialGradient616);fill-opacity:1;fill-rule:nonzero;stroke:none"
           id="path618" />
      </g>
    </g>
    <g
       transform="matrix(0.03527778,0,0,-0.03527778,-383.22862,125.96418)"
       id="g620">
      <g
         id="g622"
         clip-path="url(#clipPath626)">
        <path
           inkscape:connector-curvature="0"
           d="m 4506.15,3033.6 c -0.02,17.73 -2.57,33.89 -2.81,45.04 -0.21,11.19 0.69,37.53 0.69,37.53 0,0 -15.36,-18.6 -22.52,-26.49 -7.22,-7.88 -20.88,-17.97 -32.74,-31.19 -8.57,-9.62 -12.34,-27.44 -8.61,-40.51 3.31,-11.62 9.18,-20.62 20.32,-26.04 4.65,-2.25 9.6,-3.36 14.4,-3.36 6.41,0 12.57,1.98 17.42,5.91 8.33,6.77 13.9,15.55 13.85,39.11"
           style="fill:url(#radialGradient634);fill-opacity:1;fill-rule:nonzero;stroke:none"
           id="path636" />
      </g>
    </g>
    <g
       transform="matrix(0.03527778,0,0,-0.03527778,-383.22862,125.96418)"
       id="g638">
      <g
         id="g640"
         clip-path="url(#clipPath644)">
        <path
           inkscape:connector-curvature="0"
           d="m 4243.74,3156.63 c 0,12.2 -1.77,23.3 -1.94,30.96 -0.14,7.7 0.49,25.8 0.49,25.8 0,0 -10.56,-12.78 -15.47,-18.2 -4.97,-5.42 -14.39,-12.36 -22.53,-21.45 -5.89,-6.61 -8.48,-18.87 -5.92,-27.85 2.28,-7.99 6.3,-14.18 13.97,-17.9 3.19,-1.55 6.6,-2.31 9.92,-2.31 4.39,0 8.64,1.37 11.95,4.06 5.73,4.65 9.57,10.69 9.53,26.89"
           style="fill:url(#radialGradient652);fill-opacity:1;fill-rule:nonzero;stroke:none"
           id="path654" />
      </g>
    </g>
    <g
       transform="matrix(0.03527778,0,0,-0.03527778,-383.22862,125.96418)"
       id="g656">
      <g
         id="g658"
         clip-path="url(#clipPath662)">
        <path
           inkscape:connector-curvature="0"
           d="m 4735.52,3343.89 c -0.02,14.17 -2.05,27.08 -2.26,35.98 -0.15,8.95 0.57,29.99 0.57,29.99 0,0 -12.29,-14.86 -18.01,-21.17 -5.76,-6.29 -16.67,-14.35 -26.13,-24.92 -6.87,-7.68 -9.89,-21.92 -6.91,-32.35 2.67,-9.29 7.34,-16.48 16.24,-20.82 3.71,-1.8 7.69,-2.68 11.53,-2.68 5.11,0 10.03,1.59 13.89,4.73 6.66,5.41 11.11,12.42 11.08,31.24"
           style="fill:url(#radialGradient670);fill-opacity:1;fill-rule:nonzero;stroke:none"
           id="path672" />
      </g>
    </g>
  </g>
</svg>
