<?xml version="1.0" encoding="UTF-8" standalone="no"?> <!-- Created with Inkscape (http://www.inkscape.org/) --> <svg
   xmlns:dc="http://purl.org/dc/elements/1.1/"
   xmlns:cc="http://creativecommons.org/ns#"
   xmlns:rdf="http://www.w3.org/1999/02/22-rdf-syntax-ns#"
   xmlns:svg="http://www.w3.org/2000/svg"
   xmlns="http://www.w3.org/2000/svg"
   xmlns:sodipodi="http://sodipodi.sourceforge.net/DTD/sodipodi-0.dtd"
   xmlns:inkscape="http://www.inkscape.org/namespaces/inkscape"
   width="97mm"
   height="70mm"
   viewBox="0 0 97 69.999999"
   version="1.1"
   id="svg8"
   inkscape:version="0.92.1 r15371"
   sodipodi:docname="alarm_clock.svg">
  <defs
     id="defs2" />
  <sodipodi:namedview
     id="base"
     pagecolor="#ffffff"
     bordercolor="#666666"
     borderopacity="1.0"
     inkscape:pageopacity="0.0"
     inkscape:pageshadow="2"
     inkscape:zoom="1.979899"
     inkscape:cx="182.78906"
     inkscape:cy="126.29109"
     inkscape:document-units="mm"
     inkscape:current-layer="layer1"
     showgrid="false"
     fit-margin-top="0"
     fit-margin-left="0"
     fit-margin-right="0"
     fit-margin-bottom="0"
     inkscape:window-width="1920"
     inkscape:window-height="1001"
     inkscape:window-x="-9"
     inkscape:window-y="-9"
     inkscape:window-maximized="1" />
  <metadata
     id="metadata5">
    <rdf:RDF>
      <cc:Work
         rdf:about="">
        <dc:format>image/svg+xml</dc:format>
        <dc:type
           rdf:resource="http://purl.org/dc/dcmitype/StillImage" />
        <dc:title></dc:title>
      </cc:Work>
    </rdf:RDF>
  </metadata>
  <g
     inkscape:label="Layer 1"
     inkscape:groupmode="layer"
     id="layer1"
     transform="translate(-33.591893,-21.87063)">
    <rect
       style="fill:#ffffff;fill-opacity:1;stroke:#000000;stroke-width:0.22203133;stroke-miterlimit:4;stroke-dasharray:none;stroke-opacity:1"
       id="rect4731-6"
       width="32.516216"
       height="10.533297"
       x="67.045929"
       y="34.887329" />
    <rect
       style="fill:#ffffff;fill-opacity:1;stroke:#000000;stroke-width:0.22203133;stroke-miterlimit:4;stroke-dasharray:none;stroke-opacity:1"
       id="rect4731"
       width="32.516216"
       height="10.533297"
       x="67.446823"
       y="54.96595" />
    <text
       xml:space="preserve"
       style="font-style:normal;font-weight:normal;font-size:10.58333302px;line-height:1.25;font-family:sans-serif;letter-spacing:0px;word-spacing:0px;fill:#000000;fill-opacity:1;stroke:none;stroke-width:0.26458332"
       x="67.361702"
       y="64.223656"
       id="floorplan.hours"
       inkscape:label="floorplan.hours"><tspan
         sodipodi:role="line"
         id="tspan4511"
         x="67.361702"
         y="64.223656"
         style="stroke-width:0.26458332">00</tspan></text>
    <text
       xml:space="preserve"
       style="font-style:normal;font-weight:normal;font-size:10.58333302px;line-height:1.25;font-family:sans-serif;letter-spacing:0px;word-spacing:0px;fill:#000000;fill-opacity:1;stroke:none;stroke-width:0.26458332"
       x="86.325478"
       y="64.28862"
       id="floorplan.minutes"
       inkscape:label="floorplan.minutes"><tspan
         sodipodi:role="line"
         id="tspan4511-8"
         x="86.325478"
         y="64.28862"
         style="stroke-width:0.26458332">00</tspan></text>
    <text
       xml:space="preserve"
       style="font-style:normal;font-weight:normal;font-size:10.58333302px;line-height:1.25;font-family:sans-serif;letter-spacing:0px;word-spacing:0px;fill:#000000;fill-opacity:1;stroke:none;stroke-width:0.26458332"
       x="81.284668"
       y="63.157276"
       id="sensor.alarm_time_hours-8-2"
       inkscape:label="sensor.alarm_time_hours"><tspan
         sodipodi:role="line"
         id="tspan4511-8-2"
         x="81.284668"
         y="63.157276"
         style="stroke-width:0.26458332">:</tspan></text>
    <path
       id="input_number.alarm_time_hours_up"
       d="m 77.470026,53.735563 -0.03651,-0.03794 -2.758391,-2.827303 c -0.0933,-0.09575 -0.233245,-0.155366 -0.38942,-0.155366 -0.156173,0 -0.296121,0.06142 -0.389419,0.155366 l 
-2.756362,2.821883 -0.04665,0.04697 c -0.03448,0.04517 -0.05476,0.09936 -0.05476,0.157173 0,0.157172 0.150089,0.28544 0.336686,0.28544 v 0 h 5.816958 v 0 c 0.186597,0 
0.336686,-0.128268 0.336686,-0.28544 0,-0.05962 -0.02231,-0.115622 -0.05882,-0.160787 z"
       inkscape:connector-curvature="0"
       style="stroke-width:0.019142"
       inkscape:label="input_number.alarm_time_hours_up" />
    <path
       id="input_number.alarm_time_hours_down"
       d="m 71.16415,67.063717 0.03651,0.03794 2.758391,2.827303 c 0.0933,0.09575 0.233245,0.155366 0.38942,0.155366 0.156173,0 0.296121,-0.06142 0.389419,-0.155366 l 
2.756362,-2.821883 0.04665,-0.04697 c 0.03448,-0.04517 0.05476,-0.09936 0.05476,-0.157173 0,-0.157172 -0.150089,-0.28544 -0.336686,-0.28544 v 0 h -5.816958 v 0 c -0.186597,0 
-0.336686,0.128268 -0.336686,0.28544 0,0.05962 0.02231,0.115622 0.05882,0.160787 z"
       inkscape:connector-curvature="0"
       style="stroke-width:0.019142"
       inkscape:label="input_number.alarm_time_hours_down" />
    <path
       id="input_number.alarm_time_minutes_up"
       d="m 96.112076,53.735565 -0.03651,-0.03794 -2.758391,-2.827303 c -0.0933,-0.09575 -0.233245,-0.155366 -0.38942,-0.155366 -0.156173,0 -0.296121,0.06142 -0.389419,0.155366 l 
-2.756362,2.821883 -0.04665,0.04697 c -0.03448,0.04517 -0.05476,0.09936 -0.05476,0.157173 0,0.157172 0.150089,0.28544 0.336686,0.28544 v 0 h 5.816958 v 0 c 0.186597,0 
0.336686,-0.128268 0.336686,-0.28544 0,-0.05962 -0.02231,-0.115622 -0.05882,-0.160787 z"
       inkscape:connector-curvature="0"
       style="stroke-width:0.019142"
       inkscape:label="input_number.alarm_time_minutes_up" />
    <path
       id="input_number.alarm_time_minutes_down"
       d="m 90.140287,67.197352 0.03651,0.03794 2.758391,2.827303 c 0.0933,0.09575 0.233245,0.155366 0.38942,0.155366 0.156173,0 0.296121,-0.06142 0.389419,-0.155366 l 
2.756362,-2.821883 0.04665,-0.04697 c 0.03448,-0.04517 0.05476,-0.09936 0.05476,-0.157173 0,-0.157172 -0.150089,-0.28544 -0.336686,-0.28544 v 0 h -5.816958 v 0 c -0.186597,0 
-0.336686,0.128268 -0.336686,0.28544 0,0.05962 0.02231,0.115622 0.05882,0.160787 z"
       inkscape:connector-curvature="0"
       style="stroke-width:0.019142"
       inkscape:label="input_number.alarm_time_minutes_down" />
    <g
       id="save_alarm_time_button"
       inkscape:label="save_alarm_time_button"
       transform="translate(33.817705,-28.62403)">
      <rect
         y="100.79647"
         x="35.708157"
         height="10.557146"
         width="27.79603"
         id="rect4595"
         style="fill:#000000;fill-opacity:1;stroke:none;stroke-width:0.30110022;stroke-miterlimit:4;stroke-dasharray:none;stroke-opacity:1" />
      <text
         id="text4688"
         y="107.65768"
         x="43.976261"
         style="font-style:normal;font-weight:normal;font-size:4.93888903px;line-height:1.25;font-family:sans-serif;letter-spacing:0px;word-spacing:0px;fill:#ffffff;fill-opacity:1;stroke:#000000;stroke-width:0.26499999;stroke-miterlimit:4;stroke-dasharray:none;stroke-opacity:1"
         xml:space="preserve"><tspan
           style="font-size:4.93888903px;fill:#ffffff;fill-opacity:1;stroke:#000000;stroke-width:0.26499999;stroke-miterlimit:4;stroke-dasharray:none;stroke-opacity:1"
           y="107.65768"
           x="43.976261"
           id="tspan4686"
           sodipodi:role="line">Save</tspan></text>
    </g>
    <g
       id="input_datetime.alarm_time_get"
       inkscape:label="input_datetime.alarm_time_get"
       transform="translate(-0.440045,-2.3662849)" />
    <text
       xml:space="preserve"
       style="font-style:normal;font-weight:normal;font-size:10.58333302px;line-height:1.25;font-family:sans-serif;letter-spacing:0px;word-spacing:0px;fill:#000000;fill-opacity:1;stroke:none;stroke-width:0.26458332"
       x="67.26786"
       y="44.029381"
       id="input_datetime.alarm_time"
       inkscape:label="input_datetime.alarm_time "><tspan
         sodipodi:role="line"
         id="tspan4748"
         x="67.26786"
         y="44.029381"
         style="stroke-width:0.26458332">00:00</tspan></text>
    <text
       xml:space="preserve"
       style="font-style:normal;font-weight:normal;font-size:4.93888903px;line-height:1.25;font-family:sans-serif;letter-spacing:0px;word-spacing:0px;fill:#000000;fill-opacity:1;stroke:none;stroke-width:0.26458332"
       x="76.22139"
       y="33.873142"
       id="text4769"><tspan
         sodipodi:role="line"
         id="tspan4767"
         x="76.22139"
         y="33.873142"
         style="font-size:4.93888903px;stroke-width:0.26458332">Active</tspan></text>
    <text
       xml:space="preserve"
       style="font-style:normal;font-weight:normal;font-size:4.93888903px;line-height:1.25;font-family:sans-serif;letter-spacing:0px;word-spacing:0px;fill:#000000;fill-opacity:1;stroke:none;stroke-width:0.26458332"
       x="79.123848"
       y="52.950844"
       id="text4769-7"><tspan
         sodipodi:role="line"
         id="tspan4767-6"
         x="79.123848"
         y="52.950844"
         style="font-size:4.93888903px;stroke-width:0.26458332">Edit</tspan></text>
  </g> </svg>
